<?xml version="1.0" encoding="UTF-8" standalone="no"?>
<svg
   xmlns:dc="http://purl.org/dc/elements/1.1/"
   xmlns:cc="http://creativecommons.org/ns#"
   xmlns:rdf="http://www.w3.org/1999/02/22-rdf-syntax-ns#"
   xmlns:svg="http://www.w3.org/2000/svg"
   xmlns="http://www.w3.org/2000/svg"
   xmlns:sodipodi="http://sodipodi.sourceforge.net/DTD/sodipodi-0.dtd"
   xmlns:inkscape="http://www.inkscape.org/namespaces/inkscape"
   version="1.1"
   id="svg2120"
   width="921.59998"
   height="345.60001"
   viewBox="0 0 921.59998 345.60001"
   sodipodi:docname="hero_hill.svg"
   inkscape:version="1.0 (4035a4fb49, 2020-05-01)">
  <metadata
     id="metadata2126">
    <rdf:RDF>
      <cc:Work
         rdf:about="">
        <dc:format>image/svg+xml</dc:format>
        <dc:type
           rdf:resource="http://purl.org/dc/dcmitype/StillImage" />
        <dc:title />
      </cc:Work>
    </rdf:RDF>
  </metadata>
  <defs
     id="defs2124" />
  <sodipodi:namedview
     inkscape:document-rotation="0"
     pagecolor="#ffffff"
     bordercolor="#666666"
     borderopacity="1"
     objecttolerance="10"
     gridtolerance="10"
     guidetolerance="10"
     inkscape:pageopacity="0"
     inkscape:pageshadow="2"
     inkscape:window-width="1920"
     inkscape:window-height="1017"
     id="namedview2122"
     showgrid="false"
     inkscape:zoom="0.96137676"
     inkscape:cx="746.57471"
     inkscape:cy="228.59045"
     inkscape:window-x="-8"
     inkscape:window-y="-8"
     inkscape:window-maximized="1"
     inkscape:current-layer="g2128" />
  <g
     inkscape:groupmode="layer"
     inkscape:label="Image"
     id="g2128">
    <path
       id="path2140"
       d="m 359.56502,345.20001 c 0.13356,-0.22 14.38252,-17.32 31.66441,-38 21.08032,-25.22534 32.01277,-38.06382 33.21792,-39.00929 0.98797,-0.7751 2.33549,-2.06806 2.99446,-2.87323 0.65901,-0.80517 2.04263,-2.40299 3.07476,-3.55071 1.03212,-1.14773 3.31305,-4.24677 5.06873,-6.88677 2.74784,-4.13191 3.44426,-4.96304 5.00343,-5.97138 3.84579,-2.48715 3.9807,-2.84601 3.61872,-9.62721 l -0.23482,-4.39858 -1.1863,-1.21491 c -1.5136,-1.55005 -1.52618,-2.17294 -0.0495,-2.44996 0.62525,-0.1173 1.21664,-0.42133 1.31421,-0.67562 0.24371,-0.63504 1.86822,-0.58241 2.90054,0.094 0.53037,0.34752 1.47728,0.5577 2.52292,0.56 1.24713,0.003 1.864,0.17508 2.41968,0.67599 0.4102,0.36978 0.99782,0.76126 1.30582,0.86996 0.308,0.1087 0.56,0.34616 0.56,0.52769 0,0.18152 0.4984,0.33004 1.10752,0.33004 1.21616,0 2.30515,0.90092 2.62384,2.1707 0.14128,0.56293 1.09005,1.19868 3.90762,2.61842 2.6807,1.35078 4.16195,2.32704 5.29811,3.49189 1.30381,1.33672 1.83059,1.65196 3.04,1.81927 0.80461,0.1113 2.59216,0.48272 3.97232,0.82537 1.80352,0.44775 4.144,0.67381 8.32,0.80363 l 5.81059,0.18063 3.66157,-1.6466 3.6616,-1.6466 2.2367,0.50873 c 2.1761,0.49494 2.26115,0.49064 3.13946,-0.15871 3.19526,-2.36237 2.9679,-2.29205 6.6566,-2.05864 3.96637,0.25099 3.90922,0.2717 10.04212,-3.63828 3.56617,-2.27358 3.85433,-2.39846 4.72,-2.04561 0.50707,0.20669 1.35113,0.5503 1.87568,0.76358 0.75308,0.30621 1.24112,0.30222 2.32,-0.019 3.00963,-0.89599 2.80614,-0.96514 2.80745,0.95387 0,1.68831 0.87376,3.7973 1.57114,3.7973 0.26528,0 1.11094,-1.95103 1.76845,-4.08 0.25971,-0.8409 0.43142,-0.85824 2.65033,-0.26751 1.61882,0.43097 1.74397,0.41482 4,-0.51636 2.74634,-1.13356 3.28426,-1.06198 8.20061,1.09114 l 2.99171,1.31023 7.72829,-0.18267 7.72829,-0.18267 5.28,-1.81362 c 2.904,-0.9975 6.792,-2.24101 8.64,-2.76337 3.08339,-0.87156 3.63129,-0.93331 6.65523,-0.75003 2.74266,0.16622 3.86374,0.4106 6.68522,1.45729 4.6039,1.70791 5.04953,1.67755 7.09311,-0.48327 0.90554,-0.95747 1.64644,-1.82988 1.64644,-1.9387 0,-0.10883 0.15337,-1.18645 0.34086,-2.39472 0.28541,-1.83963 0.25939,-2.35436 -0.16,-3.16541 -1.09962,-2.12637 -0.62365,-2.1253 3.07088,0.007 3.58022,2.06627 5.62019,2.75095 9.90134,3.32324 1.86621,0.24946 3.63021,0.54456 3.92,0.65577 0.3545,0.13603 0.52692,0.0339 0.52692,-0.31205 0,-0.28283 0.12089,-0.51423 0.26864,-0.51423 0.51369,0 1.01136,-1.6405 1.01136,-3.33384 v -1.70372 l 3.28,-0.22484 c 1.85436,-0.12711 4.94905,-0.64522 7.12,-1.19202 3.60422,-0.9078 4.07577,-0.95373 7.68,-0.74816 2.112,0.12047 4.51993,0.34583 5.35094,0.5008 0.97882,0.18254 3.73987,0.1148 7.84,-0.19234 6.38634,-0.4784 8.78102,-0.97676 11.67632,-2.42997 1.08954,-0.54687 2.09875,-0.59591 12.26198,-0.59591 10.65725,0 11.19156,-0.0292 14.17277,-0.77611 1.7039,-0.42686 5.2024,-1.09092 7.77443,-1.47569 l 4.67648,-0.69959 4.28352,0.69164 c 9.95917,1.60806 24.59837,5.67867 32.28355,8.97683 5.38893,2.3127 11.91642,4.32022 20.8,6.397 6.01674,1.40658 8.397,2.17588 18.97012,6.13122 l 12.09014,4.52284 1.89475,3.71593 c 1.29939,2.54833 2.44598,4.29408 3.64909,5.55593 0.96486,1.012 1.88387,1.84 2.04221,1.84 0.15836,0 0.61651,-1.476 1.01811,-3.28 1.29993,-5.83893 1.75133,-6.96592 3.4439,-8.59795 1.17312,-1.13119 12.16544,-10.32104 15.14016,-12.65755 0.26291,-0.20652 1.98858,-0.53583 3.83479,-0.73179 2.02742,-0.2152 5.32092,-0.91254 8.31673,-1.76092 2.93875,-0.83223 8.2065,-1.9531 12.92669,-2.75055 l 7.96669,-1.34592 0.58397,0.76234 c 0.88873,1.16016 1.84272,3.17215 2.20457,4.64956 0.2712,1.10719 0.87946,1.83448 3.66893,4.38704 1.8391,1.6829 3.91328,3.35033 4.60928,3.70539 2.16458,1.10429 7.19722,2.88475 9.18317,3.24885 3.01008,0.55187 11.89129,2.72504 15.41683,3.77239 6.39379,1.89946 10.36771,1.87598 19.59987,-0.1158 2.024,-0.43666 6.308,-1.05588 9.52,-1.37603 l 5.84,-0.58209 V 293.34349 345.6 H 640.46111 c -224.82726,0 -281.09027,-0.0801 -280.89609,-0.4 z"
       style="fill:#48507e;stroke-width:0.32" />
  </g>
</svg>
