<?xml version="1.0" encoding="UTF-8" standalone="no"?>
<svg
   xmlns:dc="http://purl.org/dc/elements/1.1/"
   xmlns:cc="http://creativecommons.org/ns#"
   xmlns:rdf="http://www.w3.org/1999/02/22-rdf-syntax-ns#"
   xmlns:svg="http://www.w3.org/2000/svg"
   xmlns="http://www.w3.org/2000/svg"
   xmlns:sodipodi="http://sodipodi.sourceforge.net/DTD/sodipodi-0.dtd"
   xmlns:inkscape="http://www.inkscape.org/namespaces/inkscape"
   inkscape:version="1.0 (4035a4fb49, 2020-05-01)"
   sodipodi:docname="hills1.svg"
   viewBox="0 0 921.59998 345.60001"
   height="345.60001"
   width="921.59998"
   id="svg888"
   version="1.1">
  <metadata
     id="metadata894">
    <rdf:RDF>
      <cc:Work
         rdf:about="">
        <dc:format>image/svg+xml</dc:format>
        <dc:type
           rdf:resource="http://purl.org/dc/dcmitype/StillImage" />
        <dc:title></dc:title>
      </cc:Work>
    </rdf:RDF>
  </metadata>
  <defs
     id="defs892" />
  <sodipodi:namedview
     inkscape:current-layer="g896"
     inkscape:window-maximized="1"
     inkscape:window-y="-8"
     inkscape:window-x="-8"
     inkscape:cy="257.46474"
     inkscape:cx="220.57845"
     inkscape:zoom="2.7191841"
     showgrid="false"
     id="namedview890"
     inkscape:window-height="1017"
     inkscape:window-width="1920"
     inkscape:pageshadow="2"
     inkscape:pageopacity="0"
     guidetolerance="10"
     gridtolerance="10"
     objecttolerance="10"
     borderopacity="1"
     bordercolor="#666666"
     pagecolor="#ffffff" />
  <g
     id="g896"
     inkscape:label="Image"
     inkscape:groupmode="layer">
    <path
       id="path930"
       d="M 460.79999,345.60001 H 0 v -90.66694 -90.66693 l 2.8449663,-1.352 c 2.7727545,-1.31768 2.8738361,-1.33994 3.9823664,-0.87676 0.6255699,0.26138 4.2773353,2.23663 8.1150333,4.38946 3.837699,2.15283 9.497633,5.42596 12.577633,7.27362 3.08,1.84767 6.679808,3.92819 7.999571,4.62337 l 2.399572,1.26398 4.000428,-0.22411 c 3.062301,-0.17155 5.377879,-0.55471 9.874237,-1.63392 l 5.873811,-1.40981 1.486189,0.6566 c 0.817404,0.36112 4.84191,2.46718 8.943347,4.68012 5.683248,3.06642 7.688035,4.31084 8.427737,5.2313 0.533824,0.66427 2.436454,3.34622 4.22807,5.95989 l 3.257485,4.75213 3.489991,0.40737 c 3.056531,0.35679 3.678806,0.34467 5.010275,-0.0976 0.836156,-0.27772 2.453993,-1.21179 3.59519,-2.0757 1.746176,-1.32189 2.160237,-1.82765 2.613517,-3.19235 0.296236,-0.89188 0.88223,-2.02997 1.302211,-2.52909 0.41998,-0.49912 1.47734,-1.21453 2.3497,-1.58981 1.44798,-0.62291 1.80117,-0.65241 4.05584,-0.33882 1.35836,0.18894 3.20394,0.63511 4.10129,0.99149 0.89734,0.35639 3.71954,1.43586 6.27154,2.39883 2.552,0.96297 6.71859,2.25003 9.25909,2.86013 l 4.61908,1.10928 6.36631,-0.49464 c 5.33577,-0.41457 7.20393,-0.70585 11.54091,-1.79941 2.84603,-0.71762 5.75061,-1.34677 6.45461,-1.3981 0.704,-0.0513 2.72,-0.62178 4.48,-1.26764 1.76,-0.64587 4.136,-1.55168 5.28,-2.01293 1.144,-0.46125 3.16,-1.54211 4.48,-2.40191 1.32,-0.85982 3.46702,-2.07248 4.77115,-2.69481 2.10647,-1.00519 2.90477,-1.18781 7.15123,-1.63584 4.72225,-0.49823 4.8061,-0.49595 6.93155,0.1886 1.18331,0.38111 2.74822,0.69293 3.47759,0.69293 0.72936,0 1.94314,-0.19714 2.69729,-0.43808 0.75415,-0.24095 2.16319,-0.66831 3.13119,-0.9497 0.968,-0.28138 2.45312,-0.67964 3.30026,-0.88501 0.96777,-0.23461 2.93028,-0.31001 5.28,-0.20287 2.05686,0.0938 4.31574,0.37973 5.01974,0.63542 0.704,0.25569 2.23455,0.56057 3.40121,0.67751 1.24143,0.12442 2.83411,0.0615 3.84,-0.15176 0.94534,-0.2004 2.25165,-0.63391 2.90292,-0.96335 0.65128,-0.32944 1.86206,-0.82915 2.69062,-1.11045 0.85015,-0.28863 1.91929,-0.42891 2.45397,-0.32197 0.52112,0.10422 2.26234,0.93895 3.86938,1.85494 1.60704,0.91599 3.26532,1.92416 3.68505,2.24038 0.43565,0.3282 1.30751,0.57494 2.03161,0.57494 1.01807,0 1.46061,0.20529 2.24189,1.04 0.53539,0.572 1.30039,1.55689 1.69999,2.18865 0.39961,0.63177 1.74734,1.9054 2.99496,2.8303 1.24762,0.92489 2.26839,1.78774 2.26839,1.91744 0,0.1297 0.70412,0.69207 1.56471,1.24971 0.88249,0.57184 1.98794,1.0139 2.53543,1.0139 0.5339,0 2.04841,0.58129 3.36558,1.29176 l 2.39485,1.29177 2.17907,4.38823 c 1.19849,2.41353 2.86175,5.33595 3.69615,6.49428 1.45122,2.01462 1.59753,2.12276 3.37064,2.49122 1.01947,0.21185 2.91397,0.62151 4.21002,0.91034 1.9372,0.43172 2.59193,0.45719 3.68,0.14313 0.72795,-0.21012 2.06589,-0.55035 2.97319,-0.75607 1.4572,-0.33041 1.96115,-0.28752 4.32,0.36766 1.4687,0.40793 3.58047,0.88413 4.69283,1.05821 1.34091,0.20985 2.87022,0.20829 4.53812,-0.005 1.59498,-0.20362 2.84572,-0.55793 3.41753,-0.96812 0.49604,-0.35583 1.90988,-2.41092 3.14188,-4.56687 1.232,-2.15595 2.94891,-4.69388 3.81535,-5.63985 1.20718,-1.31798 2.27653,-2.05425 4.57571,-3.15049 1.65021,-0.78681 3.36366,-1.43056 3.80768,-1.43056 0.44401,0 1.48094,0.39155 2.30428,0.87013 0.82334,0.47857 2.8227,2.1285 4.44302,3.6665 1.62032,1.53801 3.43784,3.12645 4.03891,3.52987 0.60109,0.40342 1.93937,1.37054 2.97397,2.14914 1.03459,0.77861 2.57305,2.11061 3.41881,2.96 0.93386,0.9379 1.82211,1.54436 2.26192,1.54436 0.3983,0 1.50634,0.22786 2.46227,0.50636 0.95594,0.2785 3.17808,1.16247 4.93808,1.96437 1.76,0.8019 4.15328,1.7831 5.31843,2.18043 l 2.11844,0.72243 5.72156,-0.60725 c 3.14685,-0.33399 15.87357,-1.54279 28.28157,-2.68622 12.408,-1.14343 23.26691,-2.22662 24.13088,-2.40708 0.864,-0.18046 2.232,-0.62825 3.04,-0.99507 1.03735,-0.47094 2.55072,-0.74434 5.14912,-0.93022 2.52163,-0.18038 4.53619,-0.53655 6.4,-1.13149 2.33062,-0.74396 3.42842,-0.88969 7.6687,-1.01803 4.35408,-0.13179 5.0784,-0.0799 6.02829,0.43163 l 1.07962,0.58141 2.45171,-1.31411 c 1.34842,-0.72276 4.07302,-1.97406 6.05469,-2.78067 1.98166,-0.8066 4.21366,-1.77617 4.96,-2.15459 0.74633,-0.37842 1.83001,-1.10066 2.40813,-1.60497 0.57811,-0.50431 1.40611,-0.91693 1.84,-0.91693 0.43388,0 1.04086,0.2953 1.34886,0.65623 0.308,0.36093 0.96906,1.0789 1.46899,1.59548 0.5073,0.52416 1.49722,1.07928 2.24,1.25614 0.73207,0.1743 2.26701,0.62266 3.41101,0.99636 1.144,0.3737 2.8,1.01828 3.68,1.43241 0.88,0.41412 2.608,1.13093 3.84,1.59291 1.232,0.46197 3.32,1.43683 4.64,2.16636 l 2.4,1.32641 9.28,0.0272 c 8.39325,0.0246 9.61635,0.0977 12.8,0.76461 1.936,0.40556 4.24,0.87851 5.12,1.05099 0.88,0.17249 4.264,0.38542 7.52,0.47319 4.42102,0.11917 6.93283,0.0269 9.92,-0.36446 2.2,-0.28822 4.60336,-0.67755 5.34083,-0.86517 0.73747,-0.18763 2.17747,-1.01287 3.2,-1.83389 1.02253,-0.82101 2.31971,-2.20871 2.88259,-3.08377 0.56288,-0.87507 1.24688,-1.84303 1.52,-2.15103 0.29392,-0.33147 0.95226,-0.56 1.61319,-0.56 0.89104,0 1.47353,0.32323 2.88339,1.6 0.97171,0.88 1.90182,1.6 2.06691,1.6 0.16506,0 0.67814,0.35035 1.14022,0.77857 l 0.8401,0.77858 3.228,-1.57858 c 1.77542,-0.86822 3.55795,-1.57857 3.96118,-1.57857 0.40327,0 1.82685,0.576 3.16359,1.28 1.87305,0.98646 2.78854,1.28 3.99203,1.28 0.85891,0 2.61606,-0.1471 3.9048,-0.32689 1.28874,-0.17978 4.02762,-0.79178 6.08637,-1.36 l 3.74317,-1.03312 8.19251,-7.84 c 4.50585,-4.312 8.46425,-7.96592 8.79641,-8.11981 0.33216,-0.15389 0.93712,-0.19147 1.34432,-0.0835 0.4072,0.10797 1.96439,1.28932 3.46039,2.62524 1.496,1.33591 3.51801,2.9785 4.49341,3.6502 0.97536,0.6717 2.15315,1.77626 2.61731,2.45457 0.46419,0.67832 1.19779,2.04221 1.63024,3.03087 0.56349,1.28821 1.21766,2.12696 2.30867,2.96 l 1.5224,1.16244 h 4.54797 4.54796 l 1.56602,-1.18612 c 0.86131,-0.65235 3.00602,-2.39661 4.76602,-3.87612 1.76,-1.47951 3.632,-2.87496 4.16,-3.101 0.528,-0.22605 2.09289,-0.59227 3.47756,-0.81384 1.95568,-0.31294 2.84842,-0.6418 4,-1.47348 0.81533,-0.58885 1.98711,-1.42612 2.60391,-1.86061 1.08534,-0.76449 1.47024,-0.81109 11.93619,-1.44506 l 10.81469,-0.65509 3.18576,-2.01866 c 2.76845,-1.75422 3.58624,-2.49755 6.24275,-5.67434 1.68134,-2.01063 3.40144,-3.96674 3.82246,-4.34692 0.57076,-0.5154 1.37002,-0.74789 3.14208,-0.91394 1.30714,-0.12249 2.67492,-0.12802 3.03956,-0.0123 0.3646,0.11572 1.75574,1.70995 3.09139,3.54273 1.33565,1.83277 2.54883,3.40671 2.69597,3.49764 0.14713,0.0909 1.51587,-0.32477 3.04166,-0.92377 2.41936,-0.9498 3.37606,-1.135 7.4801,-1.44801 2.58825,-0.19741 6.43391,-0.64351 8.54591,-0.99133 3.05312,-0.50282 4.60768,-0.96723 7.58644,-2.26638 l 3.74643,-1.63397 5.37357,1.02685 c 4.26032,0.81411 5.79433,0.98223 7.4046,0.81149 1.428,-0.15142 2.90071,-0.63333 4.96,-1.62306 2.72247,-1.30845 3.24989,-1.44261 7.4809,-1.90294 l 4.5519,-0.49525 4.0881,1.81015 c 2.24842,0.99559 5.87082,2.58819 8.04976,3.53911 3.31965,1.44874 4.6249,1.83456 8.05386,2.38062 4.07612,0.64913 4.10505,0.64925 7.3983,0.0299 1.81837,-0.34198 6.47414,-1.36659 10.34614,-2.27693 3.872,-0.91033 11.072,-2.56883 16,-3.68556 4.928,-1.11672 10.20259,-2.19173 11.72135,-2.38889 1.71766,-0.22298 3.05065,-0.24848 3.52678,-0.0675 0.42099,0.16006 2.8343,1.69745 5.36288,3.41642 2.52861,1.71897 5.54954,3.52163 6.71322,4.0059 1.80323,0.75043 2.76108,0.91399 6.48422,1.10725 4.31517,0.224 4.4049,0.21465 7.36,-0.76652 1.64534,-0.54631 8.0953,-2.22 14.33322,-3.71931 l 11.34166,-2.72601 6.73834,2.12187 c 3.70608,1.16702 8.42998,2.82493 10.49753,3.68424 3.75104,1.55898 3.77549,1.56414 11.25453,2.37257 l 7.49529,0.81019 3.27783,-0.83088 c 1.80281,-0.45699 3.68697,-1.04247 4.18707,-1.30108 0.5001,-0.2586 3.12086,-1.24515 5.82394,-2.19232 3.5527,-1.24489 6.10176,-1.90957 9.1984,-2.39855 2.35606,-0.37203 4.67974,-0.75644 5.16374,-0.85426 l 0.88,-0.17784 v 84.66543 84.66543 z"
       style="fill:#7878aa;stroke-width:0.32;fill-opacity:1" />
  </g>
</svg>
