<?xml version="1.0" encoding="UTF-8" standalone="no"?>
<svg
   xmlns:dc="http://purl.org/dc/elements/1.1/"
   xmlns:cc="http://creativecommons.org/ns#"
   xmlns:rdf="http://www.w3.org/1999/02/22-rdf-syntax-ns#"
   xmlns:svg="http://www.w3.org/2000/svg"
   xmlns="http://www.w3.org/2000/svg"
   xmlns:sodipodi="http://sodipodi.sourceforge.net/DTD/sodipodi-0.dtd"
   xmlns:inkscape="http://www.inkscape.org/namespaces/inkscape"
   inkscape:version="1.0 (4035a4fb49, 2020-05-01)"
   sodipodi:docname="hills3.svg"
   viewBox="0 0 921.59998 345.60001"
   height="345.60001"
   width="921.59998"
   id="svg1493"
   version="1.1">
  <metadata
     id="metadata1499">
    <rdf:RDF>
      <cc:Work
         rdf:about="">
        <dc:format>image/svg+xml</dc:format>
        <dc:type
           rdf:resource="http://purl.org/dc/dcmitype/StillImage" />
        <dc:title></dc:title>
      </cc:Work>
    </rdf:RDF>
  </metadata>
  <defs
     id="defs1497" />
  <sodipodi:namedview
     inkscape:current-layer="g1501"
     inkscape:window-maximized="1"
     inkscape:window-y="-8"
     inkscape:window-x="-8"
     inkscape:cy="283.50468"
     inkscape:cx="841.34397"
     inkscape:zoom="3.845507"
     showgrid="false"
     id="namedview1495"
     inkscape:window-height="1017"
     inkscape:window-width="1920"
     inkscape:pageshadow="2"
     inkscape:pageopacity="0"
     guidetolerance="10"
     gridtolerance="10"
     objecttolerance="10"
     borderopacity="1"
     bordercolor="#666666"
     pagecolor="#ffffff" />
  <g
     id="g1501"
     inkscape:label="Image"
     inkscape:groupmode="layer">
    <path
       id="path1529"
       d="m 0,287.67391 v -57.9261 l 0.80389198,0.20177 c 0.46257742,0.1161 2.33071902,-0.16895 4.40000002,-0.67136 4.3586892,-1.05828 8.86448,-3.30595 13.356108,-6.66257 2.458599,-1.83732 3.802912,-2.56479 7.029081,-3.80373 3.58566,-1.37699 4.252474,-1.53191 6.59353,-1.53191 8.144239,0 12.337068,-0.77682 24.540697,-4.54669 3.477817,-1.07435 6.424284,-1.85239 6.547699,-1.72897 0.123414,0.12341 -0.124919,1.26192 -0.551853,2.53002 -0.86248,2.56179 -1.764173,3.61151 -4.361242,5.0772 -1.580761,0.89213 -1.636592,0.97016 -1.410681,1.97182 0.129369,0.57361 0.607485,1.61301 1.062477,2.30977 0.454988,0.69677 0.927123,1.81834 1.04918,2.4924 0.122058,0.67405 0.406743,1.29647 0.632634,1.38315 0.734374,0.28181 2.485971,-0.89273 4.793389,-3.2142 3.464368,-3.48547 3.176211,-3.42841 8.208438,-1.62551 6.097737,2.18464 14.302988,6.45712 18.83327,9.8065 1.614141,1.19339 5.107731,0.97535 13.093841,-0.81717 7.44209,-1.67042 9.59682,-2.45209 11.81268,-4.28526 5.16623,-4.27402 5.59218,-4.55348 6.91839,-4.53902 0.70866,0.008 1.84105,0.21109 2.51643,0.45191 1.52299,0.54306 4.46158,0.19539 7.73204,-0.91478 3.1881,-1.08221 4.47109,-1.22857 7.53476,-0.8595 1.48788,0.17924 5.15324,0.48268 8.14524,0.6743 3.42188,0.21916 9.47623,0.98677 16.32,2.06914 5.984,0.9464 12.392,1.88413 14.24,2.08384 1.848,0.19972 4.656,0.67031 6.24,1.04577 2.40262,0.5695 3.88779,0.6841 8.96,0.69136 8.64491,0.0124 10.89529,-0.37347 17.90252,-3.06967 l 5.77748,-2.22303 3.25693,0.20753 3.25694,0.20753 1.8317,2.93078 c 2.1947,3.5116 3.79674,5.25048 6.40096,6.94769 1.84111,1.19989 2.3488,1.34587 9.37376,2.69546 4.08498,0.78478 7.60104,1.5297 7.81346,1.6554 0.21244,0.12569 1.46624,1.04019 2.78624,2.03223 3.05522,2.29612 2.86035,2.19215 4.79717,2.55946 1.3319,0.25259 2.20829,0.18582 4.58475,-0.34929 1.61595,-0.36387 5.09942,-1.07204 7.74105,-1.57371 2.64164,-0.50167 6.02564,-1.23029 7.52,-1.61914 2.4078,-0.62654 2.92711,-0.66392 4.56282,-0.32843 1.01517,0.20822 3.25021,0.46415 4.96674,0.56872 2.77917,0.16932 3.26754,0.11536 4.45942,-0.49269 3.51336,-1.79239 10.00805,-3.29412 10.00805,-2.31411 0,0.15995 -1.21004,1.51456 -2.68899,3.01024 -1.47895,1.49569 -2.78862,3.03335 -2.91039,3.41701 -0.65369,2.05958 1.33888,4.8573 4.62608,6.49538 1.47568,0.73536 1.83044,0.77932 5.05587,0.62644 4.80247,-0.22763 8.92436,0.49447 12.18888,2.13532 1.34671,0.6769 3.47377,1.53589 4.72682,1.90888 2.27456,0.67706 3.23527,1.23858 5.12167,2.99352 0.54995,0.51165 1.55629,1.12153 2.23629,1.3553 1.23196,0.42353 1.23923,0.42102 2.03974,-0.70409 l 0.80339,-1.12914 2.32048,0.1755 c 1.53927,0.11641 3.58631,-0.0297 6.08032,-0.43401 5.58368,-0.90519 5.68829,-0.86737 3.77703,1.36549 -0.60656,0.70862 -1.20052,1.73326 -1.31994,2.277 -0.1889,0.85999 -0.0714,1.11529 0.90349,1.96247 0.61635,0.53563 1.26077,1.24144 1.43203,1.56847 0.24269,0.46342 0.72787,0.60933 2.1993,0.66141 1.10633,0.0392 2.81529,0.41487 4.12793,0.90749 4.12675,1.54875 13.64963,1.94118 17.57085,0.72408 0.86397,-0.26816 2.05197,-0.48757 2.64,-0.48757 1.49219,0 1.3889,-0.78388 -0.21085,-1.6 -1.47766,-0.75385 -1.64797,-1.43827 -0.43373,-1.74303 1.21773,-0.30563 0.6802,-0.5948 -2.94092,-1.58203 -3.80144,-1.03638 -3.87242,-1.07365 -4.14964,-2.17808 -0.19993,-0.79664 -0.12876,-0.87105 1.01463,-1.06086 0.67632,-0.11226 3.24566,-0.68831 5.70966,-1.28011 8.47261,-2.03493 13.51293,-2.39886 21.6,-1.55962 6.04547,0.62737 6.5521,0.64257 14.24,0.42718 5.03763,-0.14115 5.13677,-0.13088 6.16208,0.63826 l 1.04208,0.78171 1.19792,-0.72197 c 3.74307,-2.25591 4.05984,-2.32641 10.72074,-2.38619 l 6.15718,-0.0553 3.39824,1.48796 c 3.92707,1.7195 6.54006,2.32547 12.25555,2.84213 4.48928,0.40582 5.76627,0.82104 11.87936,3.86261 2.83319,1.40966 3.47645,1.60624 5.44,1.66244 1.90723,0.0546 2.5553,-0.0851 4.51536,-0.97346 4.00263,-1.81405 11.75709,-3.55307 18.19149,-4.07963 5.15917,-0.4222 15.50976,-2.16378 21.12,-3.55364 4.26355,-1.05622 7.13174,-2.00513 11.04,-3.65243 l 5.28,-2.22547 9.81142,-0.51011 9.81146,-0.51011 5.74109,1.78606 c 3.36332,1.04633 7.09958,1.97669 9.02115,2.24635 3.06336,0.4299 3.51577,0.41774 6.84745,-0.18409 1.96208,-0.35442 5.22343,-1.05744 7.24743,-1.56227 3.18806,-0.79517 5.09885,-1.00813 14.2936,-1.59309 l 10.6136,-0.67522 6.16867,1.15871 c 3.3928,0.63729 8.21305,1.57277 10.71168,2.07884 l 4.54301,0.92013 4.85923,-0.78471 c 2.67257,-0.43159 5.10547,-0.91651 5.40646,-1.07759 0.30099,-0.16109 3.82176,-2.32126 7.82394,-4.80037 10.64377,-6.59322 18.90349,-10.58561 23.95712,-11.57985 l 1.90301,-0.3744 3.09984,1.47385 c 4.10214,1.95039 7.87152,2.91461 10.23804,2.61893 1.76116,-0.22004 1.81066,-0.25625 5.3546,-3.91709 l 3.57702,-3.69499 2.68509,0.22676 c 1.4768,0.12472 3.80044,0.50798 5.16368,0.8517 1.46128,0.36845 2.84035,0.53706 3.36,0.41082 0.78505,-0.19072 3.6014,-1.96317 3.6014,-2.26651 0,-0.0656 -0.22492,-1.20824 -0.49987,-2.53923 -0.27491,-1.33099 -0.42499,-2.49485 -0.33347,-2.58636 0.0915,-0.0915 1.36045,0.0821 2.81987,0.38574 1.45939,0.30367 4.33347,0.62887 6.38679,0.72268 3.10444,0.14183 4.18246,0.0589 6.4,-0.49255 6.34012,-1.57656 5.8616,-1.58837 22.98668,0.56751 12.4513,1.5675 16.12218,2.13945 18.56551,2.89263 1.67501,0.51635 4.33901,1.14533 5.92,1.39774 1.58096,0.25241 4.74038,0.83257 7.02096,1.28925 2.28054,0.45668 4.99254,0.83033 6.02665,0.83033 5.04976,0 15.52384,-4.25017 16.54407,-6.71324 0.83472,-2.01518 -0.0772,-3.1859 -5.02324,-6.4492 l -2.94604,-1.94373 -2.2328,-4.04692 c -2.63002,-4.76689 -3.08739,-5.74128 -2.82042,-6.00828 0.10928,-0.10927 3.76867,0.46116 8.132,1.26762 4.36333,0.80646 9.51731,1.67929 11.45331,1.93961 1.936,0.26033 4.024,0.55684 4.64,0.65889 0.616,0.10206 7.21495,0.31758 14.66429,0.47893 l 13.54429,0.29337 3.57571,1.995 c 1.96666,1.09725 4.09315,2.28602 4.72557,2.64172 l 1.14985,0.64672 2.85015,-1.79803 c 1.56758,-0.98892 3.844,-2.24382 5.05875,-2.78867 1.21472,-0.54485 2.87072,-1.4735 3.68,-2.06367 0.80925,-0.59017 2.54224,-1.60971 3.85107,-2.26565 l 2.37968,-1.19263 4.18032,0.52042 c 2.29917,0.28623 5.98032,0.87515 8.18032,1.30871 2.2,0.43356 7.00074,1.07576 10.66829,1.42712 l 6.66829,0.63883 15.4408,-2.23346 c 8.49244,-1.22841 15.53571,-2.23346 15.65171,-2.23346 0.116,0 0.21091,31.896 0.21091,70.88 v 70.88 H 460.79999 0 Z"
       style="fill:#55547e;stroke-width:0.32;fill-opacity:1" />
  </g>
</svg>
