<?xml version="1.0" encoding="UTF-8" standalone="no"?>
<svg
   xmlns:dc="http://purl.org/dc/elements/1.1/"
   xmlns:cc="http://creativecommons.org/ns#"
   xmlns:rdf="http://www.w3.org/1999/02/22-rdf-syntax-ns#"
   xmlns:svg="http://www.w3.org/2000/svg"
   xmlns="http://www.w3.org/2000/svg"
   xmlns:sodipodi="http://sodipodi.sourceforge.net/DTD/sodipodi-0.dtd"
   xmlns:inkscape="http://www.inkscape.org/namespaces/inkscape"
   version="1.1"
   id="svg2108"
   width="921.59998"
   height="345.60001"
   viewBox="0 0 921.59998 345.60001"
   sodipodi:docname="hills2.svg"
   inkscape:version="1.0 (4035a4fb49, 2020-05-01)">
  <metadata
     id="metadata2114">
    <rdf:RDF>
      <cc:Work
         rdf:about="">
        <dc:format>image/svg+xml</dc:format>
        <dc:type
           rdf:resource="http://purl.org/dc/dcmitype/StillImage" />
        <dc:title />
      </cc:Work>
    </rdf:RDF>
  </metadata>
  <defs
     id="defs2112" />
  <sodipodi:namedview
     inkscape:document-rotation="0"
     pagecolor="#ffffff"
     bordercolor="#666666"
     borderopacity="1"
     objecttolerance="10"
     gridtolerance="10"
     guidetolerance="10"
     inkscape:pageopacity="0"
     inkscape:pageshadow="2"
     inkscape:window-width="1920"
     inkscape:window-height="1017"
     id="namedview2110"
     showgrid="false"
     inkscape:zoom="1.359592"
     inkscape:cx="239.08718"
     inkscape:cy="132.22491"
     inkscape:window-x="-8"
     inkscape:window-y="-8"
     inkscape:window-maximized="1"
     inkscape:current-layer="g2116" />
  <g
     inkscape:groupmode="layer"
     inkscape:label="Image"
     id="g2116">
    <path
       id="path2134"
       d="m 0,278.08001 c 0,-64.53205 0.02521354,-67.52 0.56975992,-67.52 2.65915708,0 13.65182908,1.39778 15.11024008,1.92136 4.468283,1.60413 8.737051,2.00343 12.113809,1.13311 0.993405,-0.25604 4.203802,-0.76975 7.134216,-1.14159 l 5.328025,-0.67607 1.631975,0.82698 c 0.897587,0.45485 1.631974,0.99366 1.631974,1.19736 0,0.20371 -1.01807,1.70136 -2.262381,3.32811 -2.846595,3.7215 -5.417996,5.53722 -10.557872,7.45515 -3.830232,1.42923 -8.719295,4.1803 -9.41943,5.3003 -0.225299,0.36041 -0.788827,2.31129 -1.252283,4.33529 -1.453372,6.34714 -3.166874,11.25136 -5.135272,14.69765 l -1.815777,3.17909 0.225125,2.34163 c 0.171888,1.78789 0.520939,2.93325 1.476049,4.84345 0.688009,1.376 1.414769,2.4472 1.615022,2.38045 0.200253,-0.0668 0.805709,-1.30438 1.345458,-2.75029 L 18.72,256.30305 21.516306,254.7423 c 1.537969,-0.85841 4.89107,-2.9786 7.451336,-4.71152 2.560265,-1.73293 6.053928,-3.9936 7.763692,-5.02372 1.709766,-1.03013 4.260665,-2.63791 5.668665,-3.57286 1.408,-0.93495 3.424,-2.12951 4.48,-2.65459 2.418218,-1.20242 4.610416,-4.03969 5.781456,-7.48269 0.891757,-2.62187 0.830982,-3.50023 -0.388944,-5.6214 -0.43161,-0.75046 -0.687891,-1.52119 -0.569517,-1.71272 0.118371,-0.19153 2.431654,-1.40589 5.140627,-2.69858 4.948448,-2.36134 8.216336,-3.43466 14.074771,-4.62278 1.738883,-0.35265 5.147162,-1.38148 7.573952,-2.28629 4.904928,-1.82877 8.377529,-4.02136 14.697414,-9.27993 3.747113,-3.11785 7.763232,-5.30778 11.290242,-6.15641 1.232,-0.29644 4.283,-1.12982 6.78,-1.85198 l 4.53999,-1.31301 3.94001,1.60528 c 2.167,0.88291 4.72414,1.78741 5.68253,2.01001 2.44943,0.56892 7.42046,2.27613 10.25747,3.52275 2.39114,1.05069 2.4189,1.05455 7.52,1.0453 6.74101,-0.0122 9.17107,-0.60051 17.84137,-4.31927 l 3.76137,-1.61329 1.82697,1.55771 c 1.00483,0.85673 3.12821,2.79924 4.71863,4.31668 2.46198,2.34902 3.46224,3.04389 6.73166,4.67639 3.25317,1.62439 4.68242,2.11827 9.35257,3.23185 3.03191,0.72296 6.19991,1.65985 7.04,2.08199 2.29583,1.15365 6.91279,2.38309 10.32743,2.75006 l 3.04,0.32671 5.76,-1.79832 c 4.35392,-1.35933 6.81456,-2.34885 10.08,-4.05358 5.52512,-2.8844 7.75621,-4.75977 8.68144,-7.29731 1.16209,-3.18714 1.48802,-3.14487 2.94926,0.38241 0.47829,1.15456 1.33304,2.79817 1.89945,3.65247 0.95124,1.43472 1.24968,1.63345 3.90984,2.60354 2.35712,0.85958 3.36116,1.0534 5.53014,1.06753 1.97512,0.0129 3.47321,0.26179 5.88161,0.97728 1.77732,0.528 3.54523,0.96 3.92871,0.96 0.38347,0 0.97674,0.20496 1.31838,0.45548 0.59794,0.43845 0.5763,0.49527 -0.57897,1.52 l -1.20013,1.06452 0.31155,2.10859 c 0.17135,1.15972 0.49558,2.67172 0.72051,3.36 0.38686,1.1838 0.51266,1.27564 2.32858,1.70006 1.2562,0.29361 3.68909,0.44002 7.03962,0.42367 l 5.12,-0.025 9.12,-2.28256 c 8.24328,-2.06314 9.31308,-2.40794 11.12842,-3.58673 1.91124,-1.24107 2.09396,-1.29411 3.77662,-1.09635 2.01129,0.23639 7.24448,-0.56233 13.21373,-2.01677 5.60305,-1.3652 6.70837,-1.45624 7.99539,-0.65854 0.59079,0.36618 1.1512,0.96036 1.24536,1.32042 0.0942,0.36005 0.70621,1.76099 1.36012,3.1132 0.94785,1.96006 1.18894,2.83063 1.18894,4.29357 0,2.13014 0.54576,2.95634 2.11072,3.19535 0.56137,0.0857 3.5407,-0.3301 6.6207,-0.9241 3.08,-0.594 6.464,-1.08253 7.52,-1.08561 2.4009,-0.007 13.01997,-2.73418 15.52,-3.98578 0.968,-0.48462 4.2345,-2.31594 7.25888,-4.06961 4.2113,-2.44188 6.28867,-3.43642 8.87178,-4.24734 2.84502,-0.89316 3.66211,-1.30885 5.22109,-2.65627 1.79996,-1.55565 1.92233,-1.60598 4.68368,-1.92572 2.77158,-0.32092 2.86892,-0.36133 4.32358,-1.79412 0.88234,-0.86904 1.9095,-1.55006 2.52301,-1.67276 0.70611,-0.14122 1.24694,-0.55015 1.70249,-1.28728 0.36724,-0.59418 0.81991,-1.08032 1.00596,-1.08032 0.18608,0 1.33683,0.81695 2.55728,1.81543 1.5992,1.30834 2.4734,2.31943 3.12982,3.61977 0.74624,1.47827 1.16125,1.91317 2.29664,2.4066 1.624,0.70579 3.80304,2.46123 7.78579,6.27231 4.60899,4.41031 8.6857,7.10322 17.29357,11.42343 13.39536,6.723 21.91049,9.26096 32.94643,9.81977 l 4.16,0.21064 5.92,-1.47997 c 7.26208,-1.81548 19.92886,-5.78795 23.98877,-7.52318 1.65331,-0.70664 3.16019,-1.28404 3.34864,-1.28312 0.18841,9.6e-4 1.78259,1.15218 3.54259,2.55833 2.87558,2.29746 3.54064,2.66971 6.56,3.67196 2.50282,0.83079 4.33962,1.20223 7.2,1.456 6.07401,0.53887 10.25942,1.43867 14.01933,3.01394 l 3.36582,1.41016 6.02742,-0.97155 6.02743,-0.97154 4.35037,1.31551 c 2.68742,0.81266 4.98502,1.31551 6.01065,1.31551 1.13626,0 2.15811,0.25229 3.23773,0.79937 l 1.5775,0.79938 0.68368,-0.71938 c 0.37607,-0.39565 1.55277,-1.76337 2.61495,-3.03937 1.75766,-2.11152 2.03725,-2.32 3.11136,-2.32 1.08461,0 1.36941,-0.22044 3.5175,-2.72269 1.99888,-2.32849 2.51581,-2.75125 3.57008,-2.91983 0.67805,-0.10842 1.43021,-0.35921 1.67152,-0.5573 0.24131,-0.1981 0.84608,-1.80018 1.34397,-3.56018 0.49789,-1.76 1.03725,-3.37535 1.19859,-3.58968 0.19495,-0.25898 0.76605,-0.32489 1.70272,-0.1965 1.49043,0.20428 1.4905,0.20423 1.5441,-1.49382 0.0182,-0.57631 0.22659,-0.82859 0.74528,-0.90225 0.58169,-0.0826 0.72,-0.30651 0.72,-1.16558 0,-0.89727 0.24521,-1.25032 1.57011,-2.26071 1.36986,-1.04466 1.59734,-1.38577 1.78355,-2.67442 0.2704,-1.87102 1.59648,-3.87704 2.56291,-3.87704 0.39024,0 1.5937,0.0924 2.67431,0.20536 l 1.96477,0.20536 1.11052,1.98578 c 1.24234,2.22155 1.56176,2.54649 2.79172,2.83993 0.6488,0.15479 1.17164,0.76994 2.14537,2.52412 1.69786,3.05876 3.39155,4.2478 6.71795,4.71628 1.29866,0.1829 3.27213,0.23923 4.38544,0.12516 1.89501,-0.19414 2.124,-0.14337 3.58682,0.79532 1.3976,0.89683 1.81734,1.00269 3.97597,1.00269 2.23632,0 2.77971,-0.1509 7.40649,-2.05683 4.85635,-2.00049 5.10944,-2.0669 9.23859,-2.4243 3.87405,-0.33532 4.58858,-0.30867 8.1672,0.30471 3.74586,0.64204 4.34858,0.65656 13.44,0.3238 12.11341,-0.44338 13.19492,-0.67645 18.0905,-3.89872 3.42685,-2.25556 3.87181,-2.36849 4.13168,-1.04866 0.10448,0.53071 0.31274,0.37877 1.21949,-0.8897 1.67417,-2.34204 3.05901,-2.97307 9.34995,-4.26054 4.95827,-1.01473 5.85574,-1.1105 8.72666,-0.93124 2.65718,0.16591 3.67718,0.39519 6.01302,1.35162 1.62192,0.66411 2.91872,1.02861 3.06265,0.86084 2.29572,-2.67584 3.41332,-4.29892 4.61696,-6.70524 l 1.44775,-2.89426 6.0151,-2.51635 c 3.30832,-1.384 7.53373,-2.97525 9.38983,-3.53613 4.07936,-1.23271 8.51139,-3.43671 10.89126,-5.41612 3.46214,-2.87954 12.6529,-4.9824 19.67107,-4.50076 2.83722,0.19472 3.46045,0.35592 5.6689,1.46632 l 2.48128,1.24755 0.79984,-0.86261 c 0.43993,-0.47443 0.89049,-1.27526 1.00128,-1.77962 0.11078,-0.50435 0.36784,-0.97451 0.57123,-1.04479 0.20339,-0.0703 3.32182,-0.35652 6.92982,-0.63608 3.608,-0.27956 7.856,-0.70706 9.44,-0.95 1.584,-0.24294 5.35203,-0.68283 8.37341,-0.97754 l 5.49344,-0.53583 2.98656,0.9852 c 1.64262,0.54186 3.70659,1.14036 4.58659,1.33001 2.09677,0.45187 12.76199,7.08665 15.2,9.45587 1.79674,1.74602 4.24195,3.05602 7.1832,3.84833 1.36871,0.36871 1.86304,0.35618 3.64919,-0.0925 1.96035,-0.49243 2.26464,-0.70864 5.94944,-4.2277 2.13587,-2.03981 5.67462,-5.10321 7.86387,-6.80755 3.94061,-3.06782 4.01366,-3.10714 7.30182,-3.93108 4.23875,-1.06212 5.81248,-1.83901 5.81248,-2.86936 0,-0.54952 0.45239,-1.09832 1.59946,-1.94035 0.87968,-0.64575 1.73683,-1.12602 1.90477,-1.06725 0.16793,0.0588 1.31772,0.95155 2.5551,1.98397 2.82349,2.35583 5.54586,5.88237 6.58202,8.52631 0.81324,2.07519 1.87436,3.51657 2.58883,3.51657 0.21926,0 1.31014,-0.76982 2.42422,-1.71071 1.11408,-0.94089 3.49738,-2.53769 5.29622,-3.54845 l 3.27063,-1.83774 4.06393,0.52404 4.06391,0.52405 1.78547,1.54037 c 2.15322,1.85767 5.21885,3.84204 9.30544,6.02339 3.0105,1.60694 3.0759,1.62482 6.73818,1.84158 3.49612,0.20692 3.80841,0.17409 5.71571,-0.60091 1.10963,-0.45089 3.11744,-1.52395 4.46182,-2.38459 2.27402,-1.4558 5.56167,-3.25103 5.95367,-3.25103 0.0938,0 0.17062,35.64 0.17062,79.2 v 79.2 H 460.79999 0 Z"
       style="fill:#6466a3;stroke-width:0.32" />
  </g>
</svg>
