<?xml version="1.0" encoding="UTF-8" standalone="no"?>
<svg
   xmlns:dc="http://purl.org/dc/elements/1.1/"
   xmlns:cc="http://creativecommons.org/ns#"
   xmlns:rdf="http://www.w3.org/1999/02/22-rdf-syntax-ns#"
   xmlns:svg="http://www.w3.org/2000/svg"
   xmlns="http://www.w3.org/2000/svg"
   xmlns:sodipodi="http://sodipodi.sourceforge.net/DTD/sodipodi-0.dtd"
   xmlns:inkscape="http://www.inkscape.org/namespaces/inkscape"
   version="1.1"
   id="svg1505"
   width="921.59998"
   height="345.60001"
   viewBox="0 0 921.59998 345.60001"
   sodipodi:docname="mountain_middle.svg"
   inkscape:version="1.0 (4035a4fb49, 2020-05-01)">
  <metadata
     id="metadata1511">
    <rdf:RDF>
      <cc:Work
         rdf:about="">
        <dc:format>image/svg+xml</dc:format>
        <dc:type
           rdf:resource="http://purl.org/dc/dcmitype/StillImage" />
        <dc:title />
      </cc:Work>
    </rdf:RDF>
  </metadata>
  <defs
     id="defs1509" />
  <sodipodi:namedview
     inkscape:document-rotation="0"
     pagecolor="#ffffff"
     bordercolor="#666666"
     borderopacity="1"
     objecttolerance="10"
     gridtolerance="10"
     guidetolerance="10"
     inkscape:pageopacity="0"
     inkscape:pageshadow="2"
     inkscape:window-width="1920"
     inkscape:window-height="1017"
     id="namedview1507"
     showgrid="false"
     inkscape:zoom="1.359592"
     inkscape:cx="491.77801"
     inkscape:cy="88.092584"
     inkscape:window-x="-8"
     inkscape:window-y="-8"
     inkscape:window-maximized="1"
     inkscape:current-layer="g1513" />
  <g
     inkscape:groupmode="layer"
     inkscape:label="Image"
     id="g1513">
    <path
       id="path2096"
       d="m 496.49349,208.43486 c -1.06342,-0.55283 -2.1495,-1.38644 -2.4135,-1.85247 -0.44544,-0.78633 -0.43094,-0.88676 0.20128,-1.39486 0.86483,-0.69504 1.26035,-2.45518 0.47789,-2.12673 -0.28554,0.11986 -0.88291,0.36362 -1.32752,0.54168 -1.14189,0.45733 -7.67165,-0.006 -7.67165,-0.54437 0,-0.22016 0.324,-0.55656 0.72,-0.74755 0.56518,-0.27258 -0.0626,-0.35189 -2.92,-0.3689 l -3.64,-0.0217 0.19011,-0.95055 0.19011,-0.95056 -6.73427,0.20206 -6.73427,0.20205 0.18608,-1.0915 c 0.32704,-1.91849 -1.48509,-3.22957 -4.0623,-2.93909 -1.21344,0.13678 -1.51546,0.0746 -1.51546,-0.31225 0,-0.71637 2.65834,-2.76349 4.32691,-3.33202 1.18477,-0.40369 1.38643,-0.57879 1.08499,-0.942 -0.20364,-0.24538 -0.84985,-0.44614 -1.43603,-0.44614 -0.58617,0 -1.44329,-0.17203 -1.90473,-0.38227 -0.73008,-0.33264 -0.81348,-0.5184 -0.64231,-1.4307 0.21683,-1.15585 0.46112,-1.01614 -2.95571,-1.69037 -0.92781,-0.18307 -2.36781,-0.67301 -3.2,-1.08874 -0.83222,-0.41574 -2.55712,-1.06874 -3.83312,-1.45112 -1.45507,-0.43603 -2.32,-0.86352 -2.32,-1.14665 0,-0.28765 0.97459,-0.7487 2.68627,-1.27079 1.47747,-0.45065 2.84547,-0.81936 3.04,-0.81936 0.50195,0 0.4393,-0.5387 -0.0861,-0.74032 -0.24192,-0.0928 -0.53888,-0.82917 -0.65994,-1.63632 -0.17542,-1.16978 -0.40166,-1.56144 -1.11507,-1.93036 -1.25181,-0.64734 -1.84131,-2.17081 -1.35757,-3.50854 0.62183,-1.71965 0.4689,-3.18226 -0.42003,-4.01738 -0.43587,-0.40947 -1.39219,-1.76657 -2.12518,-3.01579 -1.80387,-3.07425 -2.01946,-3.28358 -3.82883,-3.71764 -0.86544,-0.20762 -1.57354,-0.55283 -1.57354,-0.76713 0,-0.21431 0.7871,-0.63776 1.74909,-0.941 0.96201,-0.30325 1.80969,-0.65354 1.88377,-0.77844 0.074,-0.1249 0.23815,-1.41728 0.36464,-2.87197 l 0.22999,-2.64489 -0.97367,-0.33941 c -0.68147,-0.23756 -1.03334,-0.61118 -1.17254,-1.24501 -0.20157,-0.91767 -0.82413,-1.65514 -2.56128,-3.03402 l -0.96,-0.76201 0.59053,-1.00595 c 0.54185,-0.92305 0.54848,-1.05244 0.08,-1.57008 -0.7928,-0.87604 -0.61363,-1.26614 0.68947,-1.50128 1.66134,-0.29977 1.79962,-0.42989 1.18205,-1.11232 -0.72659,-0.80286 -0.37015,-1.579 0.7279,-1.58505 0.56618,-0.003 0.74387,-0.0977 0.48835,-0.25992 -0.2655,-0.16858 -0.38224,-0.96035 -0.34435,-2.33564 0.0592,-2.14932 -0.13424,-2.83954 -0.79587,-2.83954 -0.71162,0 -1.2729,-1.41105 -1.42899,-3.59236 -0.19738,-2.75874 0.24,-2.83854 2.30563,-0.42069 1.35821,1.5898 1.5607,1.71586 2.25091,1.40138 0.66451,-0.30278 1.09408,-0.12454 3.46899,1.43946 2.69796,1.77675 2.71453,1.79603 3.57437,4.15353 1.64247,4.50332 9.01315,12.77864 13.29962,14.93187 1.59494,0.8012 2.87046,1.85892 2.87318,2.38259 0,0.18933 0.15207,0.88539 0.33575,1.54682 0.45052,1.62226 2.57852,2.71142 6.28505,3.21685 2.8921,0.39437 2.77853,0.28874 2.30115,2.14055 -0.1688,0.65476 3.04164,2.2164 4.58394,2.22973 1.11843,0.01 1.20842,0.0874 1.54371,1.33263 0.55213,2.05041 0.93866,2.50364 1.96083,2.2992 1.54272,-0.30854 2.35869,0.13976 3.73431,2.05172 1.92832,2.68011 3.48694,4.33797 3.86102,4.10678 0.17949,-0.11093 1.23223,-0.33209 2.33939,-0.49148 1.10717,-0.15938 2.40906,-0.3873 2.89306,-0.50649 0.83149,-0.20475 0.87869,-0.15731 0.85629,0.86061 -0.0131,0.59252 -0.12464,1.72531 -0.24797,2.51731 -0.22387,1.43766 -0.22042,1.4444 2.1376,4.16 1.29901,1.496 2.79011,3.12428 3.3136,3.61841 l 0.95177,0.89841 1.07303,-0.81841 c 0.59014,-0.45013 1.17987,-0.81841 1.31049,-0.81841 0.13066,0 1.05232,0.85361 2.04816,1.8969 1.48464,1.55542 2.46829,2.20994 5.46381,3.63575 l 3.65322,1.73883 4.48,4.87404 c 4.41497,4.80332 4.52912,4.89879 7.86493,6.57931 1.86169,0.93789 4.17622,1.9353 5.14336,2.21646 1.61526,0.46956 11.1519,0.44554 117.0951,-0.29492 138.89846,-0.97081 263.9766,-1.12545 263.9766,-0.32637 0,0.42528 -8.46307,0.48 -74.24777,0.48 -68.74285,0 -206.39107,0.74383 -294.87222,1.59344 -20.064,0.19266 -40.43392,0.38095 -45.2665,0.41842 l -8.78649,0.0681 z"
       style="fill:#d8b7d4;stroke-width:0.32" />
    <path
       id="path2094"
       d="m 0,280.21001 v -65.38999 l 146.48,-0.19449 146.47999,-0.19449 11.68,-3.22643 c 11.40989,-3.1518 11.81691,-3.29229 17.6,-6.07482 3.256,-1.56662 7.216,-3.23324 8.8,-3.7036 3.77933,-1.12226 5.04935,-1.80085 7.18775,-3.84055 0.97696,-0.93186 2.1736,-1.79402 2.6592,-1.91589 0.4856,-0.12188 1.20467,-0.62085 1.59798,-1.10883 0.91296,-1.13276 2.39568,-1.87842 4.23702,-2.1308 1.23863,-0.16977 1.64516,-0.42867 2.75533,-1.75464 0.71626,-0.85551 1.5736,-1.55547 1.90515,-1.55547 0.33156,0 0.82416,-0.33781 1.09469,-0.75068 0.53255,-0.81278 1.76051,-1.48932 2.7032,-1.48932 0.60432,0 1.32461,-1.39354 1.75728,-3.39982 0.31991,-1.48346 1.45219,-2.33991 3.90679,-2.95501 1.8248,-0.45729 4.68156,-2.03016 16.91561,-9.31342 8.096,-4.81977 15.18407,-9.06214 15.75127,-9.42748 0.748,-0.48182 1.35299,-1.38451 2.20265,-3.28641 0.64426,-1.44217 1.33219,-2.68841 1.52874,-2.76942 0.19654,-0.081 6.47248,-2.89704 13.94649,-6.25786 13.1192,-5.89926 13.66061,-6.11059 15.6545,-6.11059 1.98883,0 2.1847,-0.0758 5.29081,-2.04639 1.77405,-1.12551 4.67888,-2.85403 6.45517,-3.84115 1.77629,-0.98711 3.68778,-2.29823 4.24775,-2.9136 1.40153,-1.54017 1.83494,-1.44408 2.06009,0.45671 0.20093,1.69665 0.78336,2.90443 1.40061,2.90443 0.66163,0 0.8551,0.69022 0.79587,2.83954 -0.0379,1.37529 0.0789,2.16706 0.34435,2.33564 0.25552,0.16222 0.0778,0.25681 -0.48835,0.25992 -1.09805,0.006 -1.45449,0.78219 -0.7279,1.58505 0.61757,0.68243 0.47929,0.81255 -1.18205,1.11232 -1.3031,0.23514 -1.48227,0.62524 -0.68947,1.50128 0.46848,0.51764 0.46185,0.64703 -0.08,1.57008 l -0.59053,1.00595 0.96,0.76201 c 1.73715,1.37888 2.35971,2.11635 2.56128,3.03402 0.1392,0.63383 0.49107,1.00745 1.17254,1.24501 l 0.97367,0.33941 -0.22999,2.64489 c -0.12649,1.45469 -0.29059,2.74707 -0.36464,2.87197 -0.0741,0.1249 -0.92176,0.47519 -1.88377,0.77844 -0.96199,0.30324 -1.74909,0.72669 -1.74909,0.941 0,0.2143 0.7081,0.55951 1.57354,0.76713 1.80937,0.43406 2.02496,0.64339 3.82883,3.71764 0.73299,1.24922 1.68931,2.60632 2.12518,3.01579 0.88893,0.83512 1.04186,2.29773 0.42003,4.01738 -0.48374,1.33773 0.10576,2.8612 1.35757,3.50854 0.71341,0.36892 0.93965,0.76058 1.11507,1.93036 0.12106,0.80715 0.41802,1.54349 0.65994,1.63632 0.52541,0.20162 0.58806,0.74032 0.0861,0.74032 -0.19453,0 -1.56253,0.36871 -3.04,0.81936 -1.71168,0.52209 -2.68627,0.98314 -2.68627,1.27079 0,0.28313 0.86493,0.71062 2.32,1.14665 1.276,0.38238 3.0009,1.03538 3.83312,1.45112 0.83219,0.41573 2.27219,0.90567 3.2,1.08874 3.41683,0.67423 3.17254,0.53452 2.95571,1.69037 -0.17117,0.9123 -0.0878,1.09806 0.64231,1.4307 0.46144,0.21024 1.31856,0.38227 1.90473,0.38227 0.58618,0 1.23239,0.20076 1.43603,0.44614 0.30144,0.36321 0.0998,0.53831 -1.08499,0.942 -1.66857,0.56853 -4.32691,2.61565 -4.32691,3.33202 0,0.3868 0.30202,0.44903 1.51546,0.31225 2.57721,-0.29048 4.38934,1.0206 4.0623,2.93909 l -0.18608,1.0915 6.73427,-0.20205 6.73427,-0.20206 -0.19011,0.95056 -0.19011,0.95055 3.64,0.0217 c 2.85738,0.017 3.48518,0.0963 2.92,0.3689 -0.396,0.19098 -0.72,0.52738 -0.72,0.74755 0,0.53836 6.52976,1.0017 7.67165,0.54436 0.44461,-0.17805 1.04198,-0.42181 1.32752,-0.54167 0.78246,-0.32845 0.38694,1.43169 -0.47789,2.12673 -0.63235,0.5082 -0.64682,0.60855 -0.20128,1.39744 0.28461,0.50393 1.32672,1.26614 2.56,1.87235 l 2.08,1.02243 24.16,-0.2273 c 107.75539,-1.01375 257.00086,-1.88465 323.59999,-1.88831 l 75.12,-0.004 v 69.12 69.12 H 460.79999 0 Z"
       style="fill:#9f97c0;stroke-width:0.32" />
  </g>
</svg>
