<?xml version="1.0" encoding="UTF-8" standalone="no"?>
<svg
   xmlns:dc="http://purl.org/dc/elements/1.1/"
   xmlns:cc="http://creativecommons.org/ns#"
   xmlns:rdf="http://www.w3.org/1999/02/22-rdf-syntax-ns#"
   xmlns:svg="http://www.w3.org/2000/svg"
   xmlns="http://www.w3.org/2000/svg"
   xmlns:sodipodi="http://sodipodi.sourceforge.net/DTD/sodipodi-0.dtd"
   xmlns:inkscape="http://www.inkscape.org/namespaces/inkscape"
   version="1.1"
   id="svg1517"
   width="921.59998"
   height="345.60001"
   viewBox="0 0 921.59998 345.60001"
   sodipodi:docname="mountains.svg"
   inkscape:version="1.0 (4035a4fb49, 2020-05-01)">
  <metadata
     id="metadata1523">
    <rdf:RDF>
      <cc:Work
         rdf:about="">
        <dc:format>image/svg+xml</dc:format>
        <dc:type
           rdf:resource="http://purl.org/dc/dcmitype/StillImage" />
        <dc:title />
      </cc:Work>
    </rdf:RDF>
  </metadata>
  <defs
     id="defs1521" />
  <sodipodi:namedview
     inkscape:document-rotation="0"
     pagecolor="#ffffff"
     bordercolor="#666666"
     borderopacity="1"
     objecttolerance="10"
     gridtolerance="10"
     guidetolerance="10"
     inkscape:pageopacity="0"
     inkscape:pageshadow="2"
     inkscape:window-width="1920"
     inkscape:window-height="1017"
     id="namedview1519"
     showgrid="false"
     inkscape:zoom="1.359592"
     inkscape:cx="468.04057"
     inkscape:cy="143.71884"
     inkscape:window-x="-8"
     inkscape:window-y="-8"
     inkscape:window-maximized="1"
     inkscape:current-layer="g1525" />
  <g
     inkscape:groupmode="layer"
     inkscape:label="Image"
     id="g1525">
    <path
       id="path2104"
       d="m 338.97769,195.80658 c -1.38701,-0.40119 -3.01008,-2.48608 -4.22848,-5.43153 -1.07949,-2.60958 -1.59789,-3.13035 -4.51895,-4.53958 -2.61094,-1.2596 -4.18896,-2.75982 -5.1672,-4.91243 -0.47065,-1.03567 -1.28435,-2.81903 -1.80822,-3.96303 -0.59037,-1.28913 -1.63504,-2.77586 -2.74752,-3.91011 l -1.79502,-1.8301 0.82821,-0.54267 c 0.77942,-0.51069 0.96723,-0.50989 3.18764,0.0136 l 2.35946,0.55624 1.92041,2.99437 c 1.0562,1.64691 2.37514,3.90434 2.93092,5.01653 1.37126,2.74401 2.08224,3.46216 3.42742,3.46216 0.60218,0 1.48586,0.27842 1.96374,0.61872 0.47792,0.3403 1.29213,0.71964 1.80941,0.84298 1.50947,0.35992 1.97434,0.9852 2.19808,2.95659 0.1137,1.00194 0.42602,2.32571 0.69405,2.94171 0.60701,1.39517 3.6807,3.697 5.35654,4.01139 1.57815,0.29606 1.19853,0.64311 -1.56918,1.43461 -2.39994,0.68632 -3.26522,0.73646 -4.84131,0.28057 z m -67.32742,-1.72326 c -0.45634,-0.24809 -1.21967,-0.96232 -1.69628,-1.58719 -0.62266,-0.81635 -1.11443,-1.13612 -1.74721,-1.13612 -0.48435,0 -2.09702,-0.59224 -3.58371,-1.31608 -8.30392,-4.04304 -10.75344,-5.01767 -12.2008,-4.85453 -1.2354,0.13925 -1.58033,0.0241 -2.86415,-0.95583 -1.18205,-0.90227 -1.57348,-1.05041 -2.05843,-0.77902 -0.4211,0.23566 -1.979,0.21505 -5.24926,-0.0694 -4.1825,-0.36385 -4.82111,-0.50146 -6.34666,-1.3676 -1.58957,-0.90248 -5.5928,-4.71986 -6.70059,-6.38951 -0.83973,-1.26563 -3.71524,-4.13203 -4.62729,-4.61265 -0.47526,-0.25044 -1.44018,-0.45535 -2.14425,-0.45535 -1.6739,0 -4.55908,-0.62435 -4.36162,-0.94385 0.0849,-0.13744 0.68646,-0.33622 1.33671,-0.44174 0.67826,-0.11007 2.30951,-0.96545 3.82646,-2.00649 l 2.64418,-1.81463 1.51545,0.3816 c 2.9475,0.74219 4.07269,1.6917 6.10434,5.15128 1.93948,3.30262 2.30421,3.61208 4.74283,4.0241 1.47845,0.24979 1.75736,0.3819 10.08,4.77422 3.432,1.81126 6.816,3.46752 7.52,3.68057 0.704,0.21305 3.19283,1.29971 5.53073,2.41478 3.8039,1.81429 4.56783,2.06277 7.26739,2.36379 1.65916,0.18501 3.09434,0.33638 3.18927,0.33638 0.0949,0 0.17261,0.73377 0.17261,1.6306 0,1.77884 0.80191,3.29453 1.93296,3.65351 0.34999,0.11108 0.55375,0.33559 0.4528,0.49893 -0.27029,0.43734 -1.78324,0.33793 -2.73548,-0.17973 z m 138.68124,-2.06335 c -0.74166,-0.12096 -1.6176,-0.46348 -1.94653,-0.76115 -0.32892,-0.29767 -1.23411,-0.75866 -2.01152,-1.02443 -1.36278,-0.46588 -1.97011,-0.963 -4.78844,-3.9195 -1.161,-1.21792 -1.29076,-1.51122 -1.20317,-2.72 l 0.0981,-1.35488 1.52,-0.0975 c 1.45146,-0.0931 1.52,-0.0597 1.52,0.74104 0,0.46121 -0.13504,1.09088 -0.30006,1.39926 -0.25456,0.47562 0.14605,0.82221 2.64,2.2842 1.61702,0.94793 3.85369,2.32819 4.9704,3.06724 1.73053,1.14532 2.16758,1.30436 2.96,1.0771 1.09507,-0.31407 1.20496,0.0534 0.28966,0.9687 -0.65984,0.65983 -1.38435,0.72553 -3.74848,0.33996 z m 68.06848,-3.83819 c -2.16573,-0.58356 -5.8145,-2.27813 -6.82445,-3.16943 -0.32144,-0.28368 -1.09782,-1.43379 -1.72528,-2.5558 -1.11689,-1.99718 -1.13693,-2.09548 -0.95449,-4.68068 0.18326,-2.59692 0.16867,-2.66689 -0.88077,-4.22524 -0.8873,-1.31757 -1.46381,-1.76553 -3.42109,-2.65827 -1.29466,-0.59052 -2.72563,-1.50868 -3.17994,-2.04036 -0.8184,-0.95779 -0.86108,-0.96792 -4.64,-1.10125 -2.52739,-0.0892 -4.05497,-0.28697 -4.52835,-0.58635 -0.39293,-0.24848 -1.58112,-0.57031 -2.64045,-0.71518 -1.05932,-0.14488 -2.01331,-0.35067 -2.11996,-0.45732 -0.29968,-0.29969 1.78643,-3.7519 2.26723,-3.7519 0.23401,0 0.83545,0.49828 1.33651,1.10728 l 0.91104,1.10728 6.2095,0.80802 6.20954,0.80803 2.11046,2.03606 c 1.16077,1.11983 2.56493,2.27062 3.12036,2.55732 0.91699,0.47334 1.04531,0.73163 1.3958,2.8095 0.21226,1.25853 0.29111,3.00327 0.17517,3.87719 -0.4023,3.0328 0.31207,3.9432 6.05917,7.7219 2.10061,1.38115 6.16496,3.04026 7.65606,3.12528 0.47274,0.0269 0.38749,0.10821 -0.29606,0.28215 -1.60627,0.40873 -4.0497,0.29195 -6.24,-0.29823 z M 135.2,183.01471 c -1.056,-0.3338 -3.10322,-0.75612 -4.54937,-0.93849 -4.91394,-0.61966 -5.36913,-0.76875 -7.24793,-2.37386 -1.37639,-1.17589 -1.88694,-1.87566 -2.30985,-3.16595 -0.70752,-2.15861 -1.33447,-3.05136 -4.3165,-6.14648 -2.21537,-2.29938 -2.50061,-2.73752 -2.70831,-4.16 -0.32131,-2.20061 -1.17641,-3.76614 -3.53296,-6.46822 -1.11202,-1.27507 -2.53849,-3.21907 -3.16993,-4.32 -0.63144,-1.10094 -1.45126,-2.3873 -1.82182,-2.85857 l -0.67375,-0.85687 1.0321,-1.30313 c 0.56765,-0.71673 1.16973,-1.30314 1.33796,-1.30314 1.99126,0 15.51723,10.28277 17.86949,13.58482 0.44598,0.62605 1.24287,1.74958 1.77087,2.49673 2.80819,3.97376 7.71894,9.6551 12.4,14.34579 1.36547,1.36829 1.54772,2.50495 0.56,3.49267 -0.79241,0.7924 -2.0753,0.78541 -4.64,-0.0253 z m 13.88684,-2.05809 c -0.81024,-0.22218 -1.74788,-0.55098 -2.08364,-0.73068 -0.75148,-0.40218 -3.0032,-4.14198 -3.0032,-4.9879 0,-0.33909 -0.50128,-1.51291 -1.11396,-2.60847 -1.34475,-2.40464 -2.08604,-5.08839 -2.08604,-7.55224 0,-1.5199 0.14588,-2.0016 0.86506,-2.85629 0.47578,-0.56543 1.31342,-1.2154 1.86143,-1.44437 0.548,-0.22897 1.77544,-0.92939 2.72764,-1.55649 2.05151,-1.35107 2.86587,-1.46139 2.86587,-0.38821 0,0.58881 -0.5949,1.14786 -2.74179,2.57659 -3.23319,2.15164 -3.18612,1.67236 -0.7322,7.45571 1.51564,3.57205 1.59094,3.88197 1.39585,5.74501 -0.17081,1.63115 -0.0924,2.19245 0.4569,3.26911 0.6625,1.2986 2.618,2.91726 3.53552,2.92651 0.26714,0.003 0.70172,0.14449 0.96572,0.31511 0.69006,0.44595 -1.04611,0.34857 -2.91316,-0.16339 z m -74.526842,-2.52607 c -4.175478,-1.84704 -5.83799,-3.5083 -7.42375,-7.41816 -0.648598,-1.59919 -1.350893,-3.90319 -1.560653,-5.12 -0.283545,-1.64482 -1.022278,-3.48481 -2.879625,-7.17239 -1.374032,-2.728 -2.938115,-5.608 -3.475738,-6.4 -0.537622,-0.792 -0.978108,-1.56516 -0.978864,-1.71814 -0.0029,-0.59955 2.310039,-4.04186 2.715853,-4.04186 0.236989,0 1.342563,1.64008 2.456832,3.64463 2.243046,4.03517 6.093081,8.72259 9.232653,11.24075 1.835459,1.47217 1.948326,1.65296 3.470105,5.55814 0.865117,2.22007 1.742698,4.5728 1.950179,5.22831 0.281213,0.88843 0.997856,1.69107 2.815296,3.15313 2.833719,2.27961 3.121139,2.42336 3.76952,1.88524 0.779091,-0.64658 0.906778,-0.10878 0.153111,0.64489 -0.568301,0.5683 -1.010272,0.67527 -2.533127,0.61312 -1.526745,-0.0623 -1.964256,0.0443 -2.538253,0.61826 -0.94334,0.94334 -1.640713,0.84683 -5.173539,-0.71592 z m 552.959992,-0.19054 c -0.352,-0.352 -0.64055,-0.892 -0.64119,-1.2 -0.003,-0.92262 -1.17456,-2.56047 -2.54259,-3.55146 l -1.28493,-0.9308 0.99434,-0.19887 c 0.54691,-0.10938 1.40281,-0.19888 1.90205,-0.19888 0.79929,0 0.94963,0.16234 1.25945,1.36001 0.60215,2.32766 1.34781,4.09013 1.84919,4.37073 0.699,0.39118 4.26816,-3.31699 4.97561,-5.16938 0.34928,-0.91463 0.97143,-1.7346 1.72045,-2.26753 0.64531,-0.45915 1.22554,-0.78257 1.28941,-0.71871 0.16163,0.16163 -1.02797,3.72053 -1.63783,4.89988 -0.71158,1.37601 -3.27465,3.53887 -4.6447,3.91943 -1.71798,0.47721 -2.52608,0.39877 -3.23926,-0.31442 z m -26.45181,-2.25896 c -0.55648,-0.3565 -1.5936,-1.41878 -2.30467,-2.36061 -0.71111,-0.94184 -2.32359,-2.62774 -3.58327,-3.74644 -1.71728,-1.52507 -2.54294,-2.55443 -3.29993,-4.114 -0.76256,-1.57108 -1.26291,-2.19199 -2.04496,-2.53775 -0.56944,-0.25176 -1.03011,-0.53976 -1.02368,-0.64 0.0166,-0.25881 2.72374,-1.94225 3.12336,-1.94225 0.5368,0 2.75616,3.55739 3.51113,5.62798 0.64701,1.77449 0.82138,1.97145 2.45434,2.77232 1.36416,0.66905 2.19299,1.41949 3.70105,3.35091 1.06877,1.36884 2.2073,2.80443 2.53005,3.1902 0.49175,0.58773 0.51143,0.73036 0.12144,0.88 -0.91286,0.3503 -2.18854,0.15789 -3.18486,-0.48036 z M 184,174.40001 c -0.352,-0.352 -0.64,-1 -0.64,-1.44 0,-0.72001 0.128,-0.80001 1.28,-0.80001 h 1.28 v 1.44001 c 0,1.22666 -0.0948,1.44 -0.64,1.44 -0.352,0 -0.928,-0.288 -1.28,-0.64 z m 568.99806,-2.18393 c -2.4422,-1.34505 -2.63452,-4.15888 -0.36448,-5.33276 1.0162,-0.52549 3.5264,-0.66266 3.5264,-0.1927 0,0.15984 -0.64902,0.69984 -1.4423,1.2 -2.18995,1.38081 -2.31971,2.77024 -0.34656,3.71117 0.96688,0.46107 1.27053,0.46775 2.79674,0.0615 2.3015,-0.61258 2.58867,-0.55984 1.13328,0.20814 -1.77312,0.93566 -3.97066,1.07847 -5.30308,0.34463 z m 119.37197,-2.15015 c -1.46848,-0.60303 -2.98048,-1.37424 -3.36,-1.71381 -0.37952,-0.33956 -1.2984,-1.14715 -2.04192,-1.79464 -2.06362,-1.79707 -4.40877,-5.1726 -6.02704,-8.67515 -0.80362,-1.73928 -1.82278,-3.6895 -2.26486,-4.33383 l -0.80378,-1.17149 1.41341,-1.30282 c 1.95123,-1.7986 2.99395,-2.59419 3.4,-2.59419 0.18973,0 0.77075,0.828 1.29123,1.84 0.52045,1.012 2.09667,3.27017 3.50275,5.01815 2.55155,3.17207 2.55687,3.18262 2.7753,5.51339 l 0.21881,2.33523 1.96304,1.72278 c 2.89367,2.53954 5.68893,3.81127 10.60301,4.82396 2.288,0.4715 4.448,0.98461 4.8,1.14023 0.39667,0.17537 -1.91501,0.28402 -6.08,0.28578 l -6.72,0.003 -2.66995,-1.09642 z m -38.97424,0.40273 c -0.37632,-0.21376 -1.34826,-1.20686 -2.15984,-2.20688 l -1.47565,-1.81823 2.77507,1.74226 c 3.05264,1.9165 3.5584,1.96425 4.90461,0.46306 0.44,-0.49065 1.556,-1.29225 2.48,-1.78134 0.924,-0.48908 1.68,-0.99115 1.68,-1.11572 0,-0.12456 -0.68525,-0.51125 -1.52278,-0.85932 -1.09552,-0.45528 -1.69763,-0.95751 -2.14595,-1.79002 -0.34276,-0.63646 -0.54304,-1.23735 -0.44509,-1.33531 0.21933,-0.21932 3.68697,1.75989 4.67382,2.66767 0.91952,0.84585 0.93066,2.25105 0.0269,3.39994 -1.01523,1.29068 -4.87142,3.04787 -6.65792,3.03389 -0.79696,-0.006 -1.75693,-0.18623 -2.13321,-0.4 z m -32.97062,-0.86634 c -2.1232,-0.97866 -2.66519,-1.62987 -2.66519,-3.20232 0,-1.33616 0.52103,-2.24 1.29127,-2.24 0.78201,0 0.85331,1.14146 0.12179,1.94978 -0.46835,0.51753 -0.43792,0.60212 0.4,1.11143 0.49881,0.3032 1.68883,1.06983 2.64445,1.7036 0.95561,0.63378 2.03561,1.11053 2.4,1.05944 0.54227,-0.076 0.57539,-0.0331 0.18249,0.23654 -0.80182,0.55029 -2.29811,0.33876 -4.37481,-0.61847 z M 37.279999,168.00118 c -0.352,-0.15154 -1.037325,-0.36087 -1.522944,-0.46518 -1.278777,-0.2747 -2.797056,-2.49211 -2.797056,-4.08504 0,-0.68917 0.148816,-1.53109 0.330701,-1.87095 0.470947,-0.87997 2.348314,-1.7543 5.310899,-2.47339 1.409213,-0.34205 2.866883,-0.78497 3.239267,-0.98426 1.156861,-0.61914 1.999133,-0.4571 1.999133,0.38458 0,0.62656 -0.451238,0.95657 -2.8,2.04774 -1.54,0.71544 -3.510525,1.46807 -4.378944,1.67252 -2.335158,0.54973 -2.570723,1.083 -1.275059,2.88647 1.312061,1.82629 1.945062,2.38856 3.174003,2.81931 0.904362,0.317 0.913635,0.33671 0.16,0.3401 -0.44,0.002 -1.088,-0.12037 -1.44,-0.2719 z m 866.341961,-0.17269 c -0.80352,-0.43631 -1.4744,-1.60273 -1.12358,-1.95355 0.0863,-0.0863 1.04883,0.29344 2.13904,0.84377 1.7833,0.90021 2.14493,0.97456 3.60378,0.74096 1.53852,-0.24637 1.64176,-0.32519 2.0166,-1.53967 0.33732,-1.09284 0.39997,-1.15515 0.42861,-0.42617 0.0496,1.26181 -0.25936,1.83573 -1.26931,2.35801 -1.16806,0.60403 -4.66566,0.58994 -5.79514,-0.0234 z m -236.92082,-1.28614 c -0.60003,-0.48073 -0.59738,-0.48617 0.0778,-0.16 1.38259,0.6679 2.43936,0.38452 4.35027,-1.16652 1.55418,-1.2615 1.928,-1.77186 2.34272,-3.19842 0.42112,-1.44858 0.6074,-1.69741 1.27076,-1.69741 1.01142,0 1.02896,0.97706 0.0486,2.70796 -0.53056,0.93668 -1.34432,1.62367 -3.11475,2.62948 -2.54864,1.44792 -3.95949,1.69884 -4.97542,0.88491 z m 161.77231,-1.11457 c -0.192,-0.35873 -0.30505,-1.25363 -0.25126,-1.98867 l 0.0978,-1.33645 0.5265,1.98867 c 0.51491,1.94488 0.32214,2.63543 -0.37303,1.33645 z M 28.699773,158.83311 c -0.113791,-0.11379 -1.358862,-0.30817 -2.766823,-0.43197 -2.062807,-0.18137 -2.812983,-0.40044 -3.863017,-1.12811 -1.472577,-1.0205 -3.907008,-3.91931 -3.733844,-4.4461 0.280082,-0.85205 1.647292,-0.4937 4.006877,1.05022 3.90255,2.55351 7.240017,4.00853 9.237138,4.02708 1.788465,0.0166 2.108327,0.25467 1.080932,0.80452 -0.678129,0.36292 -3.630028,0.4556 -3.961263,0.12436 z M 10.598071,153.31669 C 8.7236993,152.31797 8.0321675,150.4 9.546443,150.4 c 0.869451,0 1.194625,0.30318 3.346366,3.12 0.469141,0.61415 -1.005814,0.48347 -2.294738,-0.20331 z"
       style="fill:#cdaaca;stroke-width:0.32" />
    <path
       id="path2102"
       d="m 0,248.50543 v -97.09457 l 0.87999998,-0.17123 c 0.48400002,-0.0942 2.17599992,-0.2609 3.75999992,-0.3705 1.584,-0.1096 3.1029027,-0.26046 3.3753391,-0.33524 0.3342669,-0.0918 0.6277424,0.23019 0.9025146,0.99006 0.4982355,1.37784 2.5390194,2.57027 3.8460644,2.24724 3.130151,-0.77359 5.322849,-1.11088 5.415462,-0.83304 0.263279,0.78983 2.716695,3.52139 3.898295,4.34024 1.324785,0.91808 1.787303,1.01046 8.207277,1.63925 1.700656,0.16657 2.052244,0.10517 2.613937,-0.45653 0.511625,-0.51162 1.259488,-0.69674 3.533395,-0.87463 3.391834,-0.26533 6.29,0.0382 5.355929,0.56091 -0.32238,0.18042 -1.74775,0.60998 -3.167484,0.95458 -2.980419,0.72342 -4.858215,1.59645 -5.330029,2.47804 -0.181885,0.33986 -0.330701,1.18178 -0.330701,1.87095 0,1.59056 1.517648,3.80878 2.797056,4.08822 0.485619,0.10607 1.256061,0.33313 1.71209,0.50459 0.456029,0.17146 1.210457,0.26069 1.676509,0.19827 1.225168,-0.16407 4.634371,-2.77826 6.717571,-5.15106 1.73752,-1.97906 1.882512,-2.06832 4.377436,-2.69488 1.419219,-0.35642 3.089987,-0.98734 3.712823,-1.40206 1.287129,-0.85705 2.810102,-3.57047 3.627932,-6.46376 l 0.528503,-1.86972 1.166854,1.75741 c 2.338941,3.5227 5.894582,11.12886 6.29887,13.47442 0.209735,1.21681 0.911735,3.52081 1.560004,5.12 1.633097,4.02863 3.265039,5.63243 7.598636,7.46762 1.766323,0.748 3.457696,1.36 3.758608,1.36 0.300909,0 0.8592,-0.3121 1.240646,-0.69354 0.573997,-0.574 1.011508,-0.68057 2.538253,-0.61826 1.537466,0.0627 1.941607,-0.0374 2.426461,-0.60146 1.478058,-1.71942 2.532205,-2.51922 5.280973,-4.00674 2.564745,-1.38795 3.308409,-2.00043 5.611017,-4.62127 4.102125,-4.66906 5.041539,-6.31113 6.469859,-11.30912 0.68085,-2.38242 1.56862,-4.779 1.97283,-5.32572 l 0.73493,-0.99405 0.73211,0.88508 c 0.40265,0.48679 1.24536,1.78584 1.87268,2.88678 0.62732,1.10093 2.05041,3.04493 3.16243,4.32 2.35655,2.70208 3.21165,4.26761 3.53296,6.46822 0.2077,1.42248 0.49294,1.86062 2.70831,4.16 2.98591,3.09915 3.60873,3.98715 4.32148,6.16148 0.43906,1.3394 0.91814,1.98078 2.41178,3.22884 1.79955,1.50367 1.96719,1.57072 4.85713,1.94273 1.64629,0.21192 4.21726,0.68902 5.71326,1.06022 4.15803,1.03172 4.94556,1.07124 5.72931,0.28749 1.01767,-1.01767 0.84869,-2.1425 -0.52931,-3.52335 -5.50274,-5.51406 -12.66773,-14.0798 -14.43203,-17.25344 -0.42691,-0.76794 -0.41901,-0.7747 0.66752,-0.57086 1.55535,0.29178 5.27672,-0.49215 11.08045,-2.33417 5.33009,-1.6917 7.98167,-2.13651 10.25329,-1.72003 l 1.40923,0.25837 -2.04923,1.31636 c -1.12708,0.72399 -2.36437,1.41326 -2.74952,1.5317 -0.38517,0.11845 -1.14117,0.71747 -1.68,1.33118 -0.8502,0.96832 -0.97971,1.35927 -0.97971,2.95746 0,2.47664 0.73904,5.15699 2.08604,7.56566 0.61268,1.09556 1.11396,2.26938 1.11396,2.60847 0,0.83182 2.24609,4.58271 2.97911,4.97501 0.97405,0.52129 3.95378,1.21102 5.08184,1.17631 0.58247,-0.0179 1.69397,0.14186 2.47,0.35508 0.77602,0.21322 1.92802,0.29473 2.56,0.18113 2.5595,-0.46007 7.98014,-2.33626 16.74963,-5.79737 5.08393,-2.00651 9.3056,-3.6482 9.38147,-3.6482 0.0759,0 0.13795,0.26048 0.13795,0.57884 0,0.31837 0.20396,0.85837 0.45326,1.2 0.47626,0.65268 0.93584,0.69337 14.42674,1.27741 l 3.84,0.16624 5.92,-2.44899 c 9.04434,-3.74148 8.98058,-3.72335 11.12901,-3.16375 0.993,0.25864 2.43035,0.47025 3.19411,0.47025 0.76376,0 1.77751,0.20491 2.25277,0.45535 0.91205,0.48062 3.78756,3.34702 4.62729,4.61265 1.10779,1.66965 5.11102,5.48703 6.70059,6.38951 1.52555,0.86614 2.16416,1.00375 6.34666,1.3676 3.27026,0.28449 4.82816,0.3051 5.24926,0.0694 0.48495,-0.27139 0.87638,-0.12325 2.05843,0.77902 1.28382,0.97997 1.62875,1.09508 2.86415,0.95583 1.44736,-0.16314 3.89688,0.81149 12.2008,4.85453 1.48669,0.72384 3.09936,1.31608 3.58371,1.31608 0.63318,0 1.12474,0.32002 1.7493,1.13886 1.15004,1.50778 2.48749,2.17675 3.89519,1.94831 0.89703,-0.14557 1.39069,0.0111 2.55166,0.80988 1.77116,1.21859 4.07499,1.94367 5.3553,1.68546 3.49827,-0.70552 6.30101,-2.2247 8.80176,-4.77087 2.15054,-2.1896 2.64865,-2.43197 7.56405,-3.68061 1.5088,-0.38327 2.56055,-1.57584 3.42072,-3.87871 0.51782,-1.38633 1.00185,-1.79182 8.73238,-7.31522 6.37985,-4.55837 8.30715,-5.78687 8.74197,-5.57232 0.99663,0.49175 3.68514,3.75797 4.30923,5.23522 2.6634,6.30434 3.3601,7.18541 7.09168,8.96845 2.67575,1.27854 3.41018,2.05906 4.46336,4.7434 1.23856,3.15686 2.9953,5.03252 4.99066,5.32843 1.53501,0.22764 4.89306,-0.47408 6.2464,-1.30529 0.5231,-0.32129 1.18576,-0.34637 2.86563,-0.10847 2.17533,0.30806 2.19245,0.30452 3.79955,-0.78745 0.88791,-0.6033 2.79917,-1.68689 4.24727,-2.40799 2.25523,-1.12303 2.92598,-1.31108 4.67632,-1.31108 3.09379,0 5.32835,-0.52811 6.77078,-1.60017 2.99245,-2.22409 4.89344,-3.366 7.27715,-4.37133 2.50375,-1.05594 2.59165,-1.0685 7.47847,-1.0685 3.67158,0 5.24077,-0.12361 6.09373,-0.48 0.85494,-0.35722 2.42864,-0.48 6.15203,-0.48 h 5.00323 l -0.11312,1.42245 c -0.10317,1.29704 0.003,1.54391 1.20086,2.8 2.81082,2.94675 3.42532,3.4662 4.50765,3.81027 0.616,0.19583 1.624,0.68589 2.24,1.08902 1.30826,0.85617 4.44307,1.3318 5.40051,0.81939 0.34989,-0.18725 0.72442,-0.6186 0.83232,-0.95856 0.1161,-0.36578 0.61482,-0.70632 1.22167,-0.83423 0.56403,-0.11888 2.02403,-0.64974 3.24448,-1.17969 2.10025,-0.91201 2.48019,-0.96852 7.10233,-1.05636 4.70413,-0.0894 4.92365,-0.1235 5.98016,-0.92935 0.6792,-0.51806 1.30803,-1.41265 1.65162,-2.34975 0.98144,-2.6765 2.44009,-4.52424 5.27424,-6.68093 2.55193,-1.94197 2.8511,-2.30271 5.21312,-6.28623 1.37821,-2.32432 2.58841,-4.55347 2.68931,-4.95367 0.19523,-0.7744 -0.006,-0.76245 3.51702,-0.20909 0.64173,0.1008 1.46973,0.37444 1.84,0.60809 0.42378,0.26742 2.08631,0.47467 4.4872,0.55938 3.77892,0.13333 3.8216,0.14346 4.64,1.10125 0.45431,0.53168 1.88528,1.44984 3.17994,2.04036 1.95728,0.89274 2.53379,1.3407 3.42109,2.65827 1.04944,1.55835 1.06403,1.62832 0.88077,4.22524 -0.18244,2.5852 -0.1624,2.6835 0.95449,4.68068 1.37034,2.45042 1.71309,2.77185 4.38973,4.11657 3.63706,1.82722 7.56301,2.56028 10.4,1.94192 0.528,-0.11509 2.472,-0.042 4.32,0.16234 1.848,0.20437 5.21226,0.47501 7.4761,0.60141 3.95724,0.22095 4.24131,0.28537 7.36,1.66919 1.78416,0.79165 4.6119,1.93724 6.2839,2.54575 2.76909,1.00779 3.23961,1.08761 5.28,0.89573 1.80633,-0.16987 2.54976,-0.41922 3.84,-1.28793 0.88,-0.59251 2.968,-1.5948 4.64,-2.22732 3.99987,-1.51316 8.81814,-4.10151 10.33542,-5.55216 l 1.21546,-1.16204 5.34454,-0.0298 c 6.42275,-0.0358 7.4688,-0.36564 9.50458,-2.99692 2.28189,-2.9494 4.68944,-4.64553 8.62528,-6.07655 3.20502,-1.16531 3.97808,-1.31573 8.28816,-1.61274 2.6144,-0.18016 4.85801,-0.39218 4.98579,-0.47115 0.12778,-0.079 0.62854,-1.07587 1.11283,-2.21533 l 0.88051,-2.07175 2.9337,-1.1266 c 1.61357,-0.61964 3.94122,-1.35609 5.17261,-1.63657 1.5599,-0.35531 2.5304,-0.7861 3.2,-1.42045 0.52861,-0.50077 1.42653,-1.14496 1.99536,-1.43154 0.96349,-0.48542 1.11606,-0.4824 2.23053,0.0442 0.94787,0.44786 1.40694,0.99715 2.21072,2.64523 0.75804,1.55435 1.59324,2.59403 3.30476,4.114 1.25968,1.1187 2.87527,2.80873 3.59018,3.75562 2.5088,3.32288 4.25305,3.74962 7.07289,1.73038 0.98311,-0.704 1.93924,-1.28 2.12471,-1.28 0.18547,0 0.57309,0.36 0.86141,0.8 0.6286,0.95941 1.59676,1.02129 4.94828,0.31627 1.53981,-0.3239 2.68772,-0.79111 3.47421,-1.41405 0.93965,-0.74421 1.62007,-0.97339 3.40135,-1.14563 2.143,-0.20722 2.27824,-0.17776 3.59731,0.78373 1.44477,1.0531 2.62621,2.68024 2.62822,3.61968 0.003,0.78936 1.14583,1.84034 2.00119,1.83822 1.5014,-0.004 3.08972,-0.69088 4.53264,-1.96098 1.64742,-1.45012 2.36214,-2.67446 3.24409,-5.55724 0.32522,-1.06294 0.88109,-2.12591 1.24535,-2.38128 0.36185,-0.25371 1.66592,-1.4261 2.89792,-2.60532 2.23606,-2.14027 2.244,-2.14442 4.51689,-2.36686 2.21773,-0.21704 2.29459,-0.25433 2.95824,-1.43514 1.08275,-1.92648 1.78784,-2.06694 7.42941,-1.48002 l 4.8768,0.50737 2.33523,1.75762 c 1.28435,0.9667 2.77853,2.19098 3.32035,2.72063 1.36727,1.33654 2.50269,1.24896 5.43965,-0.41956 2.49037,-1.41481 3.82679,-3.03143 3.83815,-4.6429 0.005,-0.7197 0.0744,-0.73933 2.00528,-0.56761 1.1,0.0978 3.57718,0.26913 5.50483,0.38068 2.90697,0.16822 3.99184,0.38867 6.36,1.29239 1.57033,0.59927 3.40044,1.52147 4.06694,2.04933 1.79142,1.41883 3.28522,1.9539 4.78522,1.71404 1.15548,-0.18477 1.44374,-0.0772 2.99043,1.11608 1.58893,1.22584 1.85597,1.32055 3.72336,1.32055 1.84675,0 2.11251,0.0911 3.24237,1.11188 1.91024,1.72579 2.44736,1.7296 4.97312,0.0352 1.20278,-0.8069 2.34694,-1.46709 2.54259,-1.46709 0.19561,0 1.34256,0.74707 2.5487,1.66016 2.67543,2.02534 3.99315,2.53487 5.42173,2.09642 0.85654,-0.26288 1.55421,-0.14493 4.03885,0.68283 1.65187,0.55033 3.2055,1.00059 3.45245,1.00059 0.24694,0 0.91926,-0.35869 1.49404,-0.79709 0.94388,-0.71993 1.12784,-1.15318 1.90036,-4.47515 l 0.85532,-3.67806 1.8889,-1.14745 c 1.03891,-0.6311 2.73843,-1.85728 3.7767,-2.72485 1.03828,-0.86757 2.03373,-1.5774 2.21207,-1.5774 0.17837,0 1.46694,1.22128 2.86349,2.71396 2.51984,2.69326 2.5568,2.71766 4.84979,3.2 1.27081,0.26732 2.94915,0.48604 3.72966,0.48604 1.04807,0 1.41907,0.1255 1.41907,0.48 0,0.34765 -0.35731,0.48 -1.2959,0.48 -3.04266,0 -4.59952,2.05229 -3.36614,4.43735 1.06652,2.06249 4.10035,2.42454 7.19132,0.85822 2.85664,-1.44758 4.87258,-1.75762 9.47072,-1.45659 2.288,0.1498 4.952,0.49759 5.92,0.77289 0.968,0.2753 2.36871,0.50225 3.11271,0.50434 2.26521,0.006 7.81504,-2.35756 10.97897,-4.67644 0.96157,-0.70474 1.92487,-1.38635 2.14061,-1.51468 0.28563,-0.16989 7.12493,-1.16509 8.00682,-1.16509 0.0569,0 -0.0457,0.27854 -0.22784,0.61897 -0.43028,0.80398 -0.42375,2.45032 0.0131,3.26633 0.39923,0.74599 4.13836,2.5147 5.31619,2.5147 1.74406,0 3.98537,-1.73679 5.12112,-3.96835 1.42237,-2.79466 3.02848,-4.62832 5.21293,-5.95138 1.41721,-0.85836 3.40041,-2.65019 6.18889,-5.5917 2.25687,-2.38071 4.29843,-4.32857 4.53683,-4.32857 0.48685,0 2.32797,2.88632 3.37693,5.29403 0.62493,1.43439 0.67187,1.9397 0.49123,5.28689 l -0.19971,3.70092 2.08567,2.18012 c 1.1471,1.19907 2.08566,2.30196 2.08566,2.45087 0,0.52243 1.90205,1.24717 3.27315,1.24717 1.72483,0 5.6097,-1.79414 6.59379,-3.04523 0.91671,-1.16541 0.89248,-2.55708 -0.0601,-3.44931 -0.41424,-0.388 -1.63824,-1.19778 -2.72,-1.79951 -1.08176,-0.60172 -1.96685,-1.21372 -1.96685,-1.36 0,-0.37694 5.06029,-0.3309 6.40211,0.0583 0.61485,0.17832 1.70122,0.23826 2.41418,0.13322 1.09062,-0.16069 1.44601,-0.41799 2.24,-1.62184 0.71657,-1.08648 1.48281,-1.70349 3.18371,-2.56367 1.31562,-0.66533 3.04269,-1.91934 4.18512,-3.03874 l 1.94515,-1.90592 0.83485,1.21637 c 0.45917,0.669 1.49235,2.63942 2.29597,4.3787 1.61827,3.50254 3.96342,6.87808 6.02704,8.67515 0.74352,0.64749 1.66189,1.4546 2.0408,1.79358 0.37891,0.33898 1.94848,1.1241 3.4879,1.74472 l 2.79898,1.12839 6.59209,-0.12405 c 4.16698,-0.0784 7.65162,-0.31577 9.4721,-0.64517 1.584,-0.28662 2.95597,-0.52423 3.0488,-0.52803 0.0928,-0.004 1.17283,-0.73052 2.4,-1.61493 1.22717,-0.88441 2.78019,-1.75639 3.4512,-1.93773 0.67101,-0.18133 1.40925,-0.40232 1.64054,-0.49107 0.25523,-0.0979 0.50071,0.15828 0.62461,0.65191 0.11226,0.44729 0.62688,1.03188 1.14358,1.29908 1.2138,0.62768 4.55828,0.63309 5.76448,0.009 1.03805,-0.5368 1.29508,-1.10429 1.23351,-2.72351 -0.0698,-1.8338 0.32723,-2.63599 2.13789,-4.32 0.94617,-0.88 3.31222,-3.09205 5.25785,-4.91566 l 3.53741,-3.31568 v 96.51566 96.51566 H 460.79999 0 Z"
       style="fill:#8f87b8;stroke-width:0.32" />
  </g>
</svg>
