<?xml version="1.0" encoding="UTF-8" standalone="no"?>
<svg
   xmlns:dc="http://purl.org/dc/elements/1.1/"
   xmlns:cc="http://creativecommons.org/ns#"
   xmlns:rdf="http://www.w3.org/1999/02/22-rdf-syntax-ns#"
   xmlns:svg="http://www.w3.org/2000/svg"
   xmlns="http://www.w3.org/2000/svg"
   xmlns:sodipodi="http://sodipodi.sourceforge.net/DTD/sodipodi-0.dtd"
   xmlns:inkscape="http://www.inkscape.org/namespaces/inkscape"
   inkscape:version="1.0 (4035a4fb49, 2020-05-01)"
   sodipodi:docname="dead.svg"
   viewBox="0 0 232.64 225.28"
   height="225.28"
   width="232.64"
   id="svg10"
   version="1.1">
  <metadata
     id="metadata16">
    <rdf:RDF>
      <cc:Work
         rdf:about="">
        <dc:format>image/svg+xml</dc:format>
        <dc:type
           rdf:resource="http://purl.org/dc/dcmitype/StillImage" />
        <dc:title></dc:title>
      </cc:Work>
    </rdf:RDF>
  </metadata>
  <defs
     id="defs14" />
  <sodipodi:namedview
     inkscape:current-layer="g18"
     inkscape:window-maximized="1"
     inkscape:window-y="-8"
     inkscape:window-x="-8"
     inkscape:cy="105.96921"
     inkscape:cx="132.02935"
     inkscape:zoom="5.1915599"
     showgrid="false"
     id="namedview12"
     inkscape:window-height="1017"
     inkscape:window-width="1920"
     inkscape:pageshadow="2"
     inkscape:pageopacity="0"
     guidetolerance="10"
     gridtolerance="10"
     objecttolerance="10"
     borderopacity="1"
     bordercolor="#666666"
     pagecolor="#ffffff" />
  <g
     id="g18"
     inkscape:label="Image"
     inkscape:groupmode="layer">
    <path
       style="fill:#0a0b1b;stroke-width:0.32;fill-opacity:1"
       d="m 99.831192,223.63824 c 0.341438,-0.86623 1.071568,-2.55823 1.622528,-3.76 2.93059,-6.39241 3.62611,-9.61684 3.13574,-14.53744 -0.47496,-4.76587 -2.00038,-10.17801 -5.537738,-19.6476 -2.00854,-5.37691 -1.93499,-5.08599 -2.548315,-10.08 -0.734192,-5.9782 -1.653684,-10.70616 -2.262986,-11.63607 -0.730272,-1.11453 -5.740368,-5.22211 -11.20209,-9.18413 -6.240992,-4.52733 -7.73743,-6.06002 -10.955376,-11.22079 -2.66911,-4.28057 -3.509075,-6.33997 -4.551395,-11.15901 -1.347123,-6.22824 -2.055683,-8.53032 -3.152448,-10.24217 -1.379129,-2.15256 -1.854496,-2.45562 -6.500944,-4.14446 -5.329597,-1.93715 -8.409715,-2.45075 -11.535481,-1.92352 -1.240023,0.20915 -2.823136,0.28937 -3.518032,0.17825 -1.908528,-0.30519 -3.362362,0.23938 -6.848484,2.56529 -1.74631,1.16512 -3.348777,2.12624 -3.561033,2.13584 -0.212259,0.01 -0.324183,0.11734 -0.24872,0.23944 0.07546,0.1221 -0.423,0.7249 -1.107693,1.33956 -1.143899,1.0269 -2.257664,3.46879 -2.257664,4.94985 0,0.23206 -0.144,0.42192 -0.32,0.42192 -0.461525,0 -0.394363,-0.94775 0.188355,-2.65793 0.683086,-2.00475 0.494527,-2.31806 -0.814044,-1.35263 -1.195083,0.88171 -1.775434,1.00652 -2.116221,0.45511 -0.293982,-0.47567 0.962501,-1.46006 4.942413,-3.87213 7.075987,-4.28847 7.992447,-6.33242 2.839305,-6.33242 -1.123245,0 -2.860713,-0.1513 -3.861037,-0.33622 -1.319296,-0.24388 -2.324076,-0.23383 -3.658771,0.0366 -1.012,0.20506 -3.226455,0.47072 -4.921012,0.59038 -2.937563,0.20743 -3.205743,0.29036 -5.76,1.78123 -3.737263,2.18136 -4.256997,2.42258 -5.6291284,2.61255 -1.119593,0.15502 -1.034857,0.0698 1.1357274,-1.14159 1.290072,-0.72 2.48164,-1.22501 2.647928,-1.12224 0.166288,0.10277 0.262774,0.0202 0.214414,-0.1834 -0.04836,-0.20365 1.106122,-1.00635 2.565517,-1.78379 2.088622,-1.11263 2.983991,-1.41352 4.206293,-1.41352 0.854065,0 2.532654,-0.30263 3.730196,-0.67252 1.587681,-0.49038 2.76675,-0.6392 4.353707,-0.54953 1.530533,0.0865 2.176358,0.0107 2.176358,-0.25533 0,-0.20807 -0.507833,-1.13294 -1.128518,-2.05528 -1.316072,-1.95567 -1.274902,-2.50194 0.05726,-0.75976 2.130014,2.7856 2.805513,3.34889 4.591257,3.82858 2.7228,0.7314 8.449344,0.93377 13.54233,0.47857 3.999539,-0.35748 4.796185,-0.34445 6.717526,0.10985 2.687302,0.6354 3.708288,0.65078 3.935274,0.0593 0.253481,-0.66056 -1.894058,-3.85707 -3.050138,-4.53998 -0.541746,-0.32006 -0.984991,-0.67084 -0.984991,-0.77956 0,-0.10872 -0.18,-0.20794 -0.4,-0.22048 -1.175302,-0.067 -3.867866,-0.77581 -5.237994,-1.37883 -2.897955,-1.27545 -8.506816,-4.25871 -10.210032,-5.43055 -1.872825,-1.288538 -4.162256,-3.252453 -4.089753,-3.508267 0.03422,-0.120749 -0.109776,-0.220522 -0.32,-0.221722 -0.210221,-0.0013 -1.37105,-0.752163 -2.579619,-1.668812 -1.208569,-0.916647 -2.609339,-1.749021 -3.112823,-1.849719 -1.058229,-0.211645 -1.77961,-0.898502 -1.272701,-1.211789 0.623082,-0.385084 2.902468,0.49322 4.991242,1.923248 3.07057,2.102196 5.757507,4.369333 5.711453,4.819113 -0.02211,0.21607 0.136841,0.32491 0.353261,0.24187 0.216419,-0.0831 0.882521,0.15759 1.480227,0.534758 0.597705,0.37716 2.216966,1.35649 3.598358,2.1763 1.381389,0.81979 3.05401,1.81464 3.716931,2.21076 1.380618,0.82497 3.783866,1.22177 4.49145,0.74158 0.640083,-0.43437 0.237123,-1.08121 -2.838637,-4.55666 -3.932336,-4.44333 -5.24359,-5.734076 -6.450893,-6.349996 -0.635219,-0.324064 -1.792934,-1.124211 -2.572707,-1.778105 -0.779769,-0.653895 -3.577763,-2.247975 -6.217763,-3.542407 -5.036119,-2.46928 -6.220806,-2.783747 -15.84,-4.204601 -1.144,-0.168983 -3.304,-0.559476 -4.8,-0.86776 l -2.72,-0.560522 -4.5577575,0.839126 c -4.4495458,0.819207 -5.77721395,0.987434 -5.48474655,0.694967 0.1289035,-0.128903 6.01086045,-1.696349 8.42915365,-2.246234 l 0.94665,-0.215251 -1.58665,-0.97087 c -2.0819345,-1.273936 -4.94665,-4.080951 -4.94665,-4.847018 0,-0.465437 0.4322458,-0.205216 1.8696352,1.125552 1.0282992,0.952022 2.5748778,2.198086 3.4368398,2.769024 2.3887844,1.582266 10.0091974,3.777341 10.4783114,3.018298 0.101841,-0.164781 -0.248932,-0.77488 -0.779496,-1.355773 -1.233724,-1.350759 -2.01787,-2.547651 -1.807148,-2.758375 0.09066,-0.09066 1.393595,0.906519 2.895412,2.215952 3.002261,2.617668 3.731636,2.944608 7.266446,3.257149 1.32,0.116711 3.44045,0.556381 4.71211,0.977047 2.061378,0.6819 6.205775,2.705584 7.919093,3.866844 0.347159,0.2353 0.815159,0.427818 1.04,0.427818 0.574637,0 0.523715,-2.152406 -0.124739,-5.272688 l -0.533539,-2.567312 -2.822653,-2.913011 c -4.202909,-4.33745 -5.095697,-6.657063 -5.221758,-13.566989 -0.04014,-2.2 -0.0156,-3.1 0.05452,-2 0.07013,1.1 0.228629,2.000672 0.35223,2.001491 0.123602,9.6e-4 0.246863,1.116819 0.273912,2.48 0.07377,3.717687 1.191481,6.24673 4.086784,9.247171 2.234416,2.315556 3.338208,2.89176 3.431523,1.791338 0.02611,-0.308 0.01466,-1.856 -0.0255,-3.44 -0.04014,-1.584 0.08133,-4.104 0.26993,-5.6 0.290857,-2.307104 0.24567,-3.371248 -0.297684,-7.010157 -0.64375,-4.311302 -0.659862,-5.461657 -0.04889,-3.491283 0.681606,2.198189 1.080774,5.897187 1.178025,10.916515 0.160282,8.272371 1.700151,16.311959 3.833875,20.01649 0.440829,0.765363 0.70754,1.543613 0.592688,1.729443 -0.122416,0.198074 -0.05595,0.243402 0.160624,0.109549 0.203194,-0.125581 0.369444,-0.0961 0.369444,0.06552 0,0.562957 2.138729,2.990854 4.182304,4.747782 1.131734,0.972986 3.028457,2.718396 4.214947,3.878686 1.186486,1.16029 2.233401,2.03346 2.326477,1.94039 0.09307,-0.0931 0.184457,-2.89032 0.203068,-6.216084 0.04437,-7.928013 -0.457332,-11.469801 -2.828324,-19.966851 -1.431587,-5.130448 -4.037776,-10.140221 -7.491187,-14.4 -3.670355,-4.527379 -5.553325,-9.253014 -5.929069,-14.88 -0.105769,-1.584 -0.106726,-2.799088 -0.0022,-2.700195 0.104602,0.09889 0.413799,1.783046 0.687104,3.74256 0.273306,1.959517 0.694218,4.218329 0.93536,5.019584 0.569821,1.893369 3.289629,6.424361 6.677101,11.123536 2.729859,3.786915 3.572496,5.436041 5.444035,10.654515 0.824963,2.300266 1.159559,2.88 1.662211,2.88 0.366746,0 0.678832,-0.25703 0.747965,-0.616019 0.178973,-0.929325 3.078157,-5.269856 6.745357,-10.098848 1.802224,-2.373178 3.398269,-4.531978 3.546771,-4.797335 0.148499,-0.265356 0.352557,-0.39991 0.453459,-0.299008 0.100903,0.1009 -0.38288,0.963703 -1.075072,1.917335 -0.692188,0.953632 -2.701427,3.850064 -4.464972,6.436515 -4.089981,5.998451 -4.703952,7.753254 -4.386263,12.53648 0.118387,1.782483 0.44936,4.53688 0.735495,6.12088 0.36223,2.00527 0.500934,4.410774 0.456672,7.92 -0.03497,2.771995 0.02384,5.039995 0.130649,5.039995 0.240701,0 2.502259,-2.10282 6.562752,-6.102091 3.216195,-3.167715 3.896391,-4.143635 4.645005,-6.664483 0.242474,-0.816499 0.671062,-1.770039 0.952419,-2.118983 0.483591,-0.599747 0.50144,-0.560256 0.326458,0.72225 -0.101805,0.746179 -0.488743,2.186179 -0.859856,3.2 -0.583392,1.593722 -1.222051,2.378394 -4.716749,5.795078 -2.223098,2.173471 -4.473994,4.224189 -5.001994,4.557159 -0.528,0.33297 -0.921081,0.68018 -0.873516,0.77159 0.04757,0.0914 -0.145258,0.61432 -0.428496,1.16205 -0.470848,0.91052 -0.471626,1.10939 -0.0091,2.32062 0.7179,1.8798 2.312291,3.71681 3.225916,3.71681 1.018471,0 2.13256,-1.40909 3.177156,-4.01844 1.076771,-2.68973 2.209206,-4.35122 4.295004,-6.301558 2.920215,-2.73056 2.922045,-1.660826 0.0037,2.185328 -2.247027,2.96146 -2.843699,4.04597 -3.757545,6.82968 -1.255879,3.82559 -0.903645,5.1615 2.256573,8.5585 1.052684,1.13156 2.241603,2.76453 2.642038,3.62883 0.776749,1.67653 1.393914,2.55766 1.791456,2.55766 0.36417,0 3.613517,-2.27383 4.081619,-2.85624 0.906653,-1.12804 2.959821,-5.75685 3.417104,-7.70376 0.699635,-2.97873 0.622691,-4.54651 -0.491721,-10.01943 -1.434823,-7.04645 -5.455383,-17.148952 -9.24841,-23.238571 -1.225395,-1.967348 -1.626944,-3.610951 -0.979894,-4.010852 0.166086,-0.102646 0.698137,0.500855 1.182339,1.341114 0.484201,0.840259 1.212313,1.973338 1.618029,2.517949 0.405712,0.544614 0.73766,1.079424 0.73766,1.18847 0,0.109043 1.239024,2.903453 2.753389,6.209795 3.662384,7.99616 4.782663,10.807194 5.894103,14.789645 0.51239,1.83598 1.146569,3.55308 1.409289,3.8158 0.423565,0.42357 0.608285,0.19877 1.630711,-1.98448 0.71679,-1.53061 1.287017,-2.37936 1.507155,-2.24331 0.230765,0.14263 0.280883,0.028 0.143885,-0.32899 -0.261252,-0.68081 2.046179,-5.370937 3.219724,-6.544482 1.118077,-1.118077 1.330832,-0.388963 0.286157,0.980675 -0.945401,1.239488 -3.489619,7.080767 -5.501376,12.630647 -1.41687,3.90876 -1.950413,6.97602 -1.213456,6.97602 0.507264,0 1.911965,-1.29684 3.630419,-3.35167 2.534893,-3.03106 5.65042,-6.54965 6.3557,-7.17793 0.624435,-0.55626 0.6843,-0.56142 0.6843,-0.059 0,0.79363 -0.564579,1.74955 -2.001328,3.38856 -0.694262,0.792 -1.82656,2.40554 -2.516214,3.58564 -0.943395,1.6143 -1.945885,2.71407 -4.048186,4.44105 -3.088643,2.53722 -3.277475,2.78793 -4.241251,5.63112 -0.368736,1.08779 -1.114112,2.59029 -1.656387,3.33888 -2.688349,3.71116 -3.378618,7.58923 -1.873072,10.52331 0.957766,1.86654 6.94225,7.95342 9.618442,9.78301 2.528768,1.7288 6.364873,3.33775 7.951152,3.33488 2.126355,-0.004 3.890425,-1.77655 5.149613,-5.17482 0.34708,-0.93669 1.28973,-4.00707 2.09478,-6.82307 2.36339,-8.26698 2.81817,-9.33121 4.92283,-11.52 1.01541,-1.056 2.93417,-2.88536 4.26392,-4.06524 1.92947,-1.71201 2.6476,-2.61672 3.55608,-4.48 1.05231,-2.15829 2.8415,-7.32168 2.61861,-7.55703 -0.0533,-0.0562 -0.93883,-0.3203 -1.96792,-0.58679 -3.00592,-0.77841 -9.95971,-4.88974 -9.50763,-5.62124 0.12343,-0.1997 0.0681,-0.25753 -0.12951,-0.1354 -0.48665,0.30077 -2.43559,-2.22348 -3.11041,-4.028583 -1.18545,-3.171083 -10.664463,-11.118626 -18.065538,-15.146798 -0.889741,-0.484324 -1.617811,-1.073703 -1.617811,-1.309732 0,-0.589459 0.115014,-0.561446 2.182646,0.531572 0.999546,0.528393 3.329549,1.665177 5.177786,2.526188 3.367904,1.568954 8.285039,5.191396 8.052899,5.932548 -0.0587,0.187302 -6.4e-4,0.234457 0.1291,0.10479 0.12966,-0.129667 0.72524,0.06676 1.323488,0.436502 0.59826,0.369744 1.16836,0.591642 1.26689,0.493111 0.22562,-0.225619 -0.77543,-4.818211 -1.357998,-6.23024 -0.23972,-0.581011 -1.23963,-2.289498 -2.22203,-3.796634 -0.9824,-1.507133 -1.742666,-2.777872 -1.689482,-2.823859 0.05318,-0.04599 0.405344,-0.178333 0.782579,-0.294102 0.946383,-0.290432 2.627953,1.718867 3.794481,4.533993 0.49159,1.186343 1.436,3.164989 2.09869,4.396989 0.66269,1.232 1.66053,3.59615 2.21742,5.253664 1.03573,3.08273 2.46587,5.659581 3.98309,7.176801 1.14225,1.14225 2.91559,2.01451 6.66044,3.2761 3.69223,1.24386 3.63021,1.33289 2.02486,-2.90657 -1.8483,-4.881064 -2.28662,-5.71716 -3.95309,-7.540549 -1.27574,-1.395865 -1.54869,-1.878934 -1.30634,-2.312 0.16851,-0.301094 0.61938,-0.547446 1.00195,-0.547446 0.91923,0 4.22215,3.473875 4.71087,4.954688 0.5772,1.748931 0.96198,1.333923 0.95933,-1.034688 -0.005,-4.276819 -1.12739,-8.743603 -2.72335,-10.83601 -0.45688,-0.598998 -1.86649,-1.807577 -3.13246,-2.685731 -2.35046,-1.630416 -3.61529,-2.613545 -7.47986,-5.813939 -2.76344,-2.288512 -4.82793,-3.327219 -8.176158,-4.113686 -1.455165,-0.341802 -3.909751,-0.929735 -5.454641,-1.306519 -2.230172,-0.543917 -3.285046,-0.639229 -5.12,-0.462611 -2.938057,0.282794 -12.684899,2.449293 -16.188352,3.598301 l -2.677244,0.878041 -0.639351,-0.788924 -0.639353,-0.788922 2.194912,-1.011773 c 1.939027,-0.893817 7.151635,-2.443443 10.836108,-3.221401 2.080698,-0.439332 1.840458,-1.027543 -1.923984,-4.710762 -1.967849,-1.925392 -3.32102,-3.490291 -3.194742,-3.694614 0.138432,-0.223988 0.826758,0.183139 1.869984,1.106044 0.908,0.803277 2.55863,2.124852 3.668067,2.936836 2.395728,1.753404 6.413466,3.435017 7.014743,2.936 0.274054,-0.227444 1.593628,-0.204925 4.245062,0.07244 3.586054,0.37514 3.89072,0.363271 4.485216,-0.174745 1.448805,-1.311146 0.427274,-3.546935 -2.582515,-5.652275 -3.599098,-2.517562 -3.950448,-2.694836 -7.699757,-3.884932 -4.177126,-1.325891 -5.785552,-1.440006 -8.491395,-0.602451 -1.532883,0.474483 -2.121098,0.51632 -3.27473,0.232919 l -1.406221,-0.34545 1.164036,-0.792922 c 1.86318,-1.269164 1.831577,-1.301315 -3.151594,-3.205808 -1.056,-0.403587 -3.254214,-1.658073 -4.884918,-2.787747 -2.823818,-1.956211 -3.029405,-2.043337 -4.32,-1.830857 -0.745296,0.122704 -1.840669,0.422988 -2.43416,0.667296 -0.756468,0.311395 -2.335037,0.430425 -5.28,0.398134 l -4.200922,-0.04606 3.956954,-0.292253 c 3.662179,-0.270483 7.405872,-1.180221 7.40152,-1.798611 -0.0029,-0.420285 -5.963383,-4.079661 -9.785213,-6.007594 -2.126707,-1.072819 -4.466707,-2.046521 -5.2,-2.163779 -1.553799,-0.248464 -1.910535,-1.165741 -0.453261,-1.165475 2.045571,3.2e-4 6.939162,2.374166 13.68,6.635917 2.64,1.669081 5.136493,3.246278 5.547763,3.504877 1.2716,0.799564 1.110861,0.233337 -0.269069,-0.947834 -1.383136,-1.18391 -2.558694,-3.124266 -2.558694,-4.223328 0,-0.665597 -1.107875,-2.98096 -2.353226,-4.918035 -0.692963,-1.077875 -5.493081,-4.554717 -7.358492,-5.329938 -0.554554,-0.230461 -2.320253,-0.577657 -3.92377,-0.771549 -2.907443,-0.351556 -4.812291,-0.830178 -5.388512,-1.353944 -0.51775,-0.470618 0.829738,-0.303887 2.972509,0.367802 1.192041,0.373666 2.92712,0.635872 4.207718,0.635872 2.004909,0 2.328707,0.100495 4.048362,1.256462 1.028035,0.691055 1.918624,1.206991 1.979088,1.146527 0.06047,-0.06046 -1.152659,-1.420374 -2.695834,-3.022021 -3.965718,-4.115986 -6.785808,-9.491003 -5.601155,-10.675656 0.25775,-0.257749 0.353379,-0.141258 0.353565,0.430688 6.4e-4,1.934442 2.816873,6.404152 7.105846,11.27779 1.226231,1.393388 2.097635,2.650725 1.974819,2.849442 -0.120892,0.19561 -0.07807,0.268054 0.09517,0.160992 0.389293,-0.240598 3.196743,2.65064 4.376573,4.507187 0.479338,0.754279 1.010083,1.285779 1.179434,1.181117 0.169345,-0.104666 0.307905,-1.141802 0.307905,-2.304746 0,-1.162947 0.07267,-2.041779 0.161485,-1.952963 0.08882,0.08882 0.152221,1.516816 0.140896,3.173335 -0.01133,1.656515 -0.01552,3.436668 -0.0093,3.955897 0.0207,1.737287 5.527917,6.575949 7.484547,6.575949 0.845994,0 1.918662,-2.562019 2.071811,-4.948432 0.246945,-3.848534 -0.963919,-7.398288 -4.533951,-13.291568 -0.90625,-1.496 -1.88217,-3.23385 -2.168717,-3.861889 -0.501241,-1.098595 -0.491488,-1.201723 0.257226,-2.72 0.876406,-1.777216 0.880041,-3.548947 0.01178,-5.738111 -0.279219,-0.704 -0.499232,-2.144 -0.488912,-3.2 l 0.01875,-1.92 0.413763,2.4 c 0.227571,1.32 0.723382,3.111282 1.101808,3.980627 l 0.688048,1.580628 0.621987,-1.022777 c 0.95132,-1.564324 1.589253,-3.246377 1.584369,-4.177558 -0.0041,-0.788044 -3.164694,-13.8446232 -3.689321,-15.24092035 -0.166266,-0.4425248 -0.136775,-0.5412624 0.09558,-0.32 0.425351,0.4050447 4.583831,13.33739235 4.795015,14.91189135 0.212451,1.583945 -0.252631,2.847241 -2.355879,6.39925 -2.478416,4.185597 -2.4815,4.327068 -0.170169,7.808859 2.099366,3.162486 4.161616,7.122864 4.992227,9.587158 0.570374,1.692199 0.694362,3.531383 0.524797,7.784615 -0.132663,3.32759 0.0986,3.619456 3.595808,4.53824 1.438995,0.378051 3.883353,1.051677 5.43191,1.496944 3.872647,1.113533 4.099607,0.936169 2.130723,-1.665085 -2.691689,-3.556214 -4.47166,-7.650278 -6.082464,-13.990099 -0.53487,-2.105149 -1.44872,-4.694314 -2.070617,-5.866576 -1.04721,-1.973965 -1.449491,-4.039585 -0.857917,-4.405197 0.461318,-0.28511 0.940429,0.262084 1.174691,1.341622 0.449075,2.069422 1.86745,1.463606 3.460378,-1.477998 1.16424,-2.149961 1.506576,-4.55467 1.532144,-10.762395 0.01237,-3.003676 0.136134,-5.749229 0.275033,-6.101229 0.1389,-0.3520007 0.20226,1.088 0.140804,3.2 -0.06146,2.112 -0.1632,5.569448 -0.226096,7.683219 -0.128458,4.317053 -0.527047,5.585648 -2.606538,8.295805 -1.109338,1.445778 -1.181789,1.661805 -0.858586,2.56 0.194144,0.539536 0.772621,2.64544 1.285501,4.679782 0.512883,2.034343 1.279472,4.554343 1.70353,5.6 0.844233,2.081744 3.999264,7.181194 4.443005,7.181194 0.324476,0 3.201817,-3.40185 4.368518,-5.164848 l 0.804637,-1.215894 -1.777011,-2.649629 c -2.282813,-3.403805 -2.414442,-3.803482 -2.13728,-6.489629 0.12712,-1.232 0.251571,-1.906296 0.27656,-1.498435 0.03699,0.603741 0.171824,0.701446 0.725504,0.525715 0.457644,-0.145248 0.608457,-0.09997 0.461113,0.138438 -0.120425,0.194855 -0.426461,0.354282 -0.680073,0.354282 -0.340589,0 -0.461114,0.422224 -0.461114,1.615373 0,1.291753 0.216083,1.948857 1.078602,3.28 0.593228,0.915545 1.524332,2.082877 2.06912,2.594073 l 0.990521,0.929447 0.294151,-0.769447 c 1.585452,-4.147254 3.442601,-7.881116 3.761366,-7.562352 0.07554,0.07554 -0.290432,1.058839 -0.813258,2.18512 -0.522828,1.126282 -1.310364,3.299882 -1.750086,4.830224 -1.160022,4.037188 -3.041088,7.533175 -3.814886,7.09002 -0.206541,-0.118285 -0.279786,-0.108234 -0.162765,0.02234 0.117024,0.130569 0.009,0.725033 -0.24,1.321024 -1.064131,2.546828 -0.512397,3.488505 5.069485,8.652371 3.606248,3.336179 4.470968,4.309373 4.782298,5.382189 0.459538,1.583539 1.484078,3.276809 2.617158,4.325398 1.18636,1.097901 1.11315,0.525808 -0.58741,-4.590086 -0.78413,-2.35896 -1.59418,-5.256493 -1.8001,-6.438964 -0.625308,-3.590851 -0.219828,-7.929616 1.29967,-13.906729 1.59199,-6.262282 2.06501,-11.624399 1.17695,-13.341723 -0.27791,-0.537425 -0.40304,-1.090479 -0.27806,-1.22901 0.12498,-0.138532 0.0686,-0.161514 -0.12521,-0.05107 -0.71699,0.408493 -6.529456,-7.061814 -6.526349,-8.387806 6.4e-4,-0.281704 0.299936,-0.02035 0.667939,0.58329 0.521274,0.855061 0.729392,0.994695 0.953902,0.64 0.23146,-0.365666 0.28811,-0.341957 0.29206,0.122213 0.0127,1.495233 3.402048,5.658933 4.609288,5.662382 0.56201,0.0016 0.59015,-0.19456 0.40134,-2.798273 -0.11167,-1.540004 -0.34662,-3.664004 -0.52211,-4.720004 -0.17549,-1.056 -0.5313,-3.773964 -0.7907,-6.03992 -0.4808,-4.2000868 -0.74505,-4.9498935 -2.354208,-6.6800804 -0.45015,-0.484 -0.67445,-0.88 -0.49845,-0.88 0.176,0 0.72898,0.4268797 1.22884,0.9486214 0.499858,0.5217421 1.009108,0.8866474 1.131668,0.8109008 0.12256,-0.075746 0.39491,1.3333741 0.60522,3.1313785 0.37812,3.2326117 1.37117,8.9021157 2.64646,15.1090997 1.05867,5.152664 0.90204,8.100205 -0.85024,16 -1.66224,7.493872 -2.15929,11.68 -1.38686,11.68 0.85835,0 1.84069,-2.419309 3.27823,-8.073632 l 1.42584,-5.608294 -0.0825,-5.719037 c -0.0786,-5.450852 -0.12896,-5.85409 -1.07294,-8.599037 -1.71302,-4.981217 -1.65913,-5.78375 0.93315,-13.894439 1.03818,-3.2482657 4.62308,-11.13202779 4.92476,-10.83034485 0.0982,0.098207 -0.38816,1.30945825 -1.0808,2.69167045 -1.62287,3.2384874 -4.38203,11.7168474 -4.85959,14.9325414 -0.45729,3.079263 -0.25054,4.426892 1.21211,7.900572 1.07377,2.550127 1.15152,2.968097 1.24503,6.692518 0.0549,2.184884 0.17104,4.043821 0.25819,4.130967 0.0871,0.08715 0.98751,-0.630743 2.00082,-1.595312 1.01329,-0.96457 3.47767,-2.71745 5.47638,-3.89529 1.99871,-1.17784 4.41071,-2.805075 5.36,-3.616077 2.13155,-1.82104 2.27571,-1.421887 0.20598,0.570305 -1.9912,1.916602 -4.47068,3.56586 -4.93213,3.280669 -0.20721,-0.128061 -0.28006,-0.08638 -0.16745,0.09581 0.10962,0.177363 -0.48014,0.802125 -1.31056,1.388359 -2.92616,2.065715 -5.0717,4.11783 -5.90388,5.646819 -0.76212,1.400275 -1.29634,3.208554 -2.48788,8.421229 -0.22127,0.968 -0.81634,2.682067 -1.32237,3.809037 -1.19761,2.667155 -1.87573,4.985491 -1.87573,6.412685 0,0.63006 0.78166,3.319606 1.73703,5.976771 0.95537,2.657165 1.83332,5.344451 1.951,5.971747 0.1698,0.905162 0.70379,1.558368 2.58746,3.165149 3.88638,3.315107 4.60451,3.348147 4.60451,0.211856 0,-1.614976 -0.15473,-2.216125 -0.81605,-3.1704 -0.60267,-0.869661 -0.76038,-1.399347 -0.60315,-2.025802 0.16606,-0.661613 0.30672,-0.770377 0.63932,-0.494342 0.34548,0.286723 0.44479,-1.79e-4 0.52316,-1.511399 0.0906,-1.746809 0.15014,-1.871494 0.93764,-1.962787 0.65587,-0.07603 0.88224,0.06713 1.02867,0.650551 0.20778,0.827872 0.72633,4.982003 1.15862,9.281868 0.30964,3.079872 0.58758,3.626772 3.05177,6.005066 l 1.49201,1.44 1.12485,-1.28 1.12486,-1.28 -0.13115,-2.72 c -0.11383,-2.3608 -0.31211,-3.121459 -1.50149,-5.76 -0.75369,-1.672 -1.57255,-3.267338 -1.8197,-3.545197 -0.24715,-0.277859 -0.44936,-0.837952 -0.44936,-1.244656 0,-0.651392 0.0973,-0.596121 0.81675,0.464083 0.4492,0.661946 1.5652,2.637687 2.48,4.390535 1.60851,3.082118 1.66325,3.273024 1.66325,5.801117 0,1.437766 -0.072,3.257593 -0.16,4.04406 -0.20715,1.851296 0.44721,2.042535 2.30759,0.674397 2.15682,-1.586141 2.41552,-1.137078 0.50116,0.86993 -1.83889,1.927885 -2.89701,3.673507 -3.26733,5.390237 -0.11917,0.552476 0.0244,4.080476 0.31895,7.84 0.38425,4.903624 0.47867,8.486012 0.33408,12.675492 -0.1636,4.74037 -0.1216,5.84 0.22305,5.84 0.23353,0 1.73086,-1.33202 3.32741,-2.96004 2.45115,-2.49948 2.98448,-3.23388 3.42771,-4.72 1.14448,-3.83736 0.93026,-9.744201 -0.47797,-13.17928 -0.77573,-1.892252 -0.77463,-3.188096 0.005,-5.746969 1.02193,-3.354634 1.28565,-5.660221 1.14261,-9.989277 -0.16349,-4.947754 -0.71417,-6.784275 -3.24579,-10.824768 -0.40676,-0.649187 -1.37664,-3.358486 -2.15529,-6.020666 -0.77865,-2.662182 -1.46643,-4.877705 -1.5284,-4.923385 -0.43166,-0.318128 -3.53076,-1.47561 -3.951,-1.47561 -0.28576,0 -0.42523,-0.152634 -0.30993,-0.339184 0.13277,-0.214829 0.83108,-0.261539 1.90465,-0.127408 l 1.69503,0.211779 -0.10885,-2.192592 c -0.10871,-2.189782 -0.10853,-2.190326 0.14439,-0.424691 0.13928,0.972349 0.42083,2.081059 0.62567,2.463798 0.39105,0.730692 5.03058,3.211632 5.37043,2.871783 0.31551,-0.315504 -0.8029,-2.802864 -1.98328,-4.410864 -0.5974,-0.813821 -0.99943,-1.566429 -0.89339,-1.672458 0.34042,-0.340425 4.59323,5.29609 5.93206,7.862138 1.28421,2.46135 2.80018,4.040467 4.49891,4.686326 0.98896,0.376 6.70169,1.038874 6.93577,0.804787 0.0925,-0.09252 -0.022,-0.285795 -0.25457,-0.429507 -0.23253,-0.143712 -2.06248,-1.888688 -4.06657,-3.877728 -3.8303,-3.801539 -4.27779,-4.585939 -3.81592,-6.688829 0.11992,-0.545974 0.57091,-1.412051 1.0022,-1.924617 0.4313,-0.512563 0.8151,-1.372797 0.85289,-1.911629 0.0378,-0.538829 0.21272,-0.930624 0.38872,-0.870653 0.46642,0.158931 0.21975,1.409738 -0.66425,3.368218 -1.50234,3.328413 -1.12426,3.971622 5.29102,9.001331 5.39285,4.228099 6.22363,4.797597 6.53886,4.482371 0.38214,-0.382137 -1.33508,-5.089856 -2.8796,-7.894365 -0.59732,-1.084598 -1.0843,-2.236598 -1.08217,-2.56 0.01,-1.533395 4.96317,8.98738 5.59868,11.891994 0.23104,1.056 0.71695,2.516672 1.07978,3.245936 0.36284,0.729267 0.80411,1.97033 0.98061,2.757917 0.56725,2.531165 1.95613,6.636147 2.24527,6.636147 0.36618,0 1.16983,2.51599 1.61172,5.045837 0.57747,3.306038 0.0124,5.337305 -2.3886,8.585817 -0.60153,0.813876 0.14638,0.846058 1.18856,0.05115 3.43604,-2.620793 6.89348,-7.193686 9.10314,-12.040041 0.65187,-1.429722 1.83098,-3.208122 2.99665,-4.519712 2.03898,-2.294215 2.54033,-3.432567 2.54033,-5.768026 0,-1.117715 -0.20795,-1.70377 -0.90912,-2.562115 -0.50002,-0.612099 -1.2924,-1.881514 -1.76086,-2.820919 -0.47909,-0.96071 -1.98721,-2.873462 -3.44695,-4.37175 -3.05963,-3.140438 -4.25393,-4.758688 -6.02652,-8.16584 -1.37,-2.633306 -3.16472,-4.4744 -4.36171,-4.4744 -0.37363,0 -1.09682,-0.129824 -1.60709,-0.288499 -0.51026,-0.158676 -2.00775,-0.611934 -3.32775,-1.007236 -1.32,-0.395306 -4.056,-1.506503 -6.08,-2.469328 -2.024,-0.962829 -4.256,-1.93994 -4.96,-2.17136 -1.01227,-0.332756 -1.11267,-0.424919 -0.48,-0.440621 0.44,-0.01091 2.24,0.644112 4,1.455632 5.41859,2.498461 11.18291,4.565165 11.59197,4.156109 0.0811,-0.08113 -0.26188,-0.361268 -0.76223,-0.622535 -0.50036,-0.261264 -1.28485,-0.883881 -1.74333,-1.383593 -0.98143,-1.069719 -3.63038,-5.831268 -3.38214,-6.079501 0.0941,-0.0941 0.48249,0.439318 0.8631,1.185373 1.03085,2.020643 3.27404,4.249616 6.24749,6.207891 3.31732,2.184749 3.5913,2.484528 5.42305,5.933737 1.61155,3.034551 3.41258,5.266781 4.07258,5.04762 0.40061,-0.133028 0.57426,-1.245898 1.04912,-6.72369 0.16569,-1.911293 0.32653,-2.48 0.70138,-2.48 0.4239,0 0.45708,0.626995 0.25824,4.88 -0.29352,6.277952 -0.10745,6.99903 2.53099,9.808298 1.10335,1.174777 2.26198,2.526502 2.57474,3.00383 0.31275,0.477331 0.69609,0.867872 0.85184,0.867872 0.38368,0 0.35629,-1.80632 -0.0689,-4.546979 -0.2552,-1.644807 -0.25589,-2.762794 -0.003,-4.061296 0.1923,-0.98545 0.42956,-2.583725 0.52723,-3.551725 0.0977,-0.968 0.53483,-2.816944 0.97146,-4.108768 l 0.79386,-2.348768 -0.80457,-3.338637 c -0.44251,-1.836249 -1.04353,-3.803305 -1.33559,-4.371232 -0.75788,-1.473737 -4.85427,-5.619145 -8.64675,-8.750222 l -3.24853,-2.682373 -3.15101,-0.02249 c -1.73305,-0.01237 -3.39763,-0.12037 -3.69906,-0.24 -0.30144,-0.119631 0.73056,-0.21751 2.29333,-0.21751 1.56277,0 2.94034,-0.09895 3.06128,-0.219881 0.12093,-0.120935 -0.74158,-1.119281 -1.9167,-2.218547 -1.98422,-1.856143 -3.37397,-3.84936 -3.36685,-4.828824 0.002,-0.227011 0.42055,0.307252 0.93087,1.187252 1.22686,2.115564 3.23136,3.97696 5.80997,5.395172 l 2.10383,1.157093 0.93617,-0.976833 c 0.75875,-0.791714 0.97239,-1.351928 1.12736,-2.956132 l 0.19121,-1.9793 0.0488,2.149143 c 0.0329,1.45122 -0.12845,2.520834 -0.497,3.293704 -0.70999,1.488866 -0.40689,1.989414 2.7858,4.600494 1.32,1.079536 2.93181,2.411965 3.58179,2.96095 1.45405,1.228106 2.17821,1.06081 2.17821,-0.503216 0,-0.821715 -0.26567,-1.390787 -0.99999,-2.141981 -1.59766,-1.634378 -2.84002,-3.817623 -2.84002,-4.990869 0,-1.24914 -1.39532,-4.151827 -3.01707,-6.276441 -0.62861,-0.823527 -1.14293,-1.596324 -1.14293,-1.717326 0,-0.545659 2.35723,2.14151 3.2207,3.671506 1.03149,1.827698 1.5603,1.924568 1.6112,0.295151 0.0301,-0.963055 0.0454,-0.975627 0.26971,-0.221115 0.1308,0.44 0.16968,1.889614 0.0864,3.221364 -0.14643,2.341544 -0.11909,2.458182 0.82924,3.538276 0.53936,0.614301 1.50431,1.396688 2.14433,1.738636 1.12141,0.599148 1.17921,0.60063 1.59164,0.04077 0.91561,-1.242886 1.8176,-5.723731 2.0645,-10.25592 l 0.24642,-4.52313 0.0479,3.28 c 0.0525,3.594358 0.27977,3.936342 1.64793,2.48 0.41336,-0.44 0.89871,-0.8 1.07855,-0.8 0.17985,0 -0.11713,0.468 -0.65995,1.04 -1.32452,1.395713 -1.84178,2.509401 -2.48951,5.36 -0.29994,1.32 -0.85668,3.264 -1.23721,4.32 -1.01423,2.81455 -0.92006,7.238429 0.20701,9.724688 0.44762,0.987421 0.89197,2.047312 0.98744,2.355312 0.28017,0.903866 1.09525,0.652637 2.59548,-0.8 l 1.40456,-1.36 -0.48496,-2.964416 c -0.57967,-3.543392 -0.32369,-5.250893 1.28833,-8.593892 2.23334,-4.631468 5.72861,-8.067432 12.46829,-12.256728 2.38465,-1.482269 4.41262,-2.895396 4.50659,-3.140282 0.094,-0.244886 0.29905,-0.366019 0.45573,-0.269186 0.15668,0.09683 1.24816,-0.32604 2.42551,-0.939718 1.17736,-0.613678 2.2245,-1.115778 2.32699,-1.115778 0.63508,0 -1.38457,1.527104 -3.27285,2.474676 -1.232,0.61824 -2.288,1.250354 -2.34667,1.404698 -0.0587,0.154344 -0.27466,0.281084 -0.48,0.281645 -0.20533,5.76e-4 -1.23733,0.584487 -2.29333,1.297616 -1.056,0.713128 -2.60516,1.651684 -3.44258,2.08568 -0.83742,0.433995 -2.85342,2.118068 -4.48,3.742384 -4.4948,4.48854 -6.28758,7.993163 -6.30697,12.329192 -0.007,1.543232 0.16509,2.675351 0.50685,3.336243 l 0.5173,1.000356 0.75154,-1.576247 c 0.41338,-0.86693 1.40081,-2.296239 2.19432,-3.176239 1.17939,-1.307952 1.62544,-2.180611 2.44369,-4.780924 1.1829,-3.759103 1.5809,-4.436685 3.00215,-5.111112 1.33668,-0.634298 4.07827,-3.605578 5.31273,-5.757832 0.51425,-0.896573 0.93634,-1.467718 0.938,-1.269212 0.006,0.721846 -0.92762,2.553304 -2.04922,4.019883 -0.63128,0.825441 -1.14778,1.597467 -1.14778,1.715613 0,0.118146 0.54,0.124629 1.2,0.01441 1.17737,-0.196624 1.18492,-0.191479 0.4,0.272827 -0.44,0.260276 -1.55931,0.699415 -2.48735,0.975865 -0.92804,0.276449 -2.13165,0.899626 -2.6747,1.384838 -0.82574,0.737798 -1.0071,1.163928 -1.10795,2.603336 -0.15409,2.199054 -1.48216,5.01802 -3.60552,7.653099 -1.74145,2.161129 -1.89941,2.521472 -1.21966,2.782317 0.72622,0.278678 2.15335,-0.455815 5.15882,-2.655063 1.593,-1.165673 3.54436,-2.359401 4.33636,-2.652726 0.792,-0.293328 1.944,-0.843731 2.56,-1.223123 1.59931,-0.985005 4.16,-0.897568 4.16,0.142044 0,0.320874 -0.44299,0.445764 -1.58111,0.445764 -0.86962,0 -1.66448,0.13488 -1.76637,0.299737 -0.23087,0.373565 -2.05976,1.300263 -2.56614,1.300263 -0.20641,0 -2.38443,1.332 -4.84005,2.96 -2.45562,1.628 -5.57661,3.444601 -6.93554,4.036892 -1.35894,0.592292 -2.47079,1.215751 -2.47079,1.385469 0,0.631149 9.37323,-1.053875 11.97249,-2.152291 0.36212,-0.153024 0.53755,-0.137568 0.42917,0.03781 -0.10129,0.163885 1.39226,0.553309 3.33738,0.870176 5.65489,0.921206 9.49818,2.342694 13.54475,5.009693 2.69614,1.776966 3.64878,2.248205 4.24325,2.099001 0.46404,-0.116467 0.68998,-0.06845 0.57248,0.121671 -0.10937,0.176963 0.33292,0.373981 1.01319,0.451312 0.66401,0.07548 0.37322,0.09703 -0.6462,0.04787 -1.87167,-0.09024 -3.27885,-0.663776 -8.5323,-3.4776 -1.13618,-0.608554 -2.18018,-1.03576 -2.32,-0.949347 -0.13981,0.08641 -0.25421,0.892614 -0.25421,1.791558 0,2.13176 -0.35257,1.771434 -0.42454,-0.433878 l -0.0555,-1.699243 -1.5404,-0.571469 c -2.04702,-0.75942 -6.55464,-1.527628 -8.96367,-1.527628 -1.06713,0 -3.82027,0.362144 -6.11808,0.804762 -7.96521,1.534307 -8.14619,1.619017 -9.69772,4.53919 -1.27902,2.407286 -1.63426,4.170941 -0.89709,4.453818 0.84555,0.32447 5.83702,-1.459735 7.85656,-2.80833 1.0126,-0.676192 1.96017,-1.22944 2.10569,-1.22944 0.14553,0 -0.30463,0.595731 -1.00035,1.323846 -0.88275,0.923866 -2.4517,1.892432 -5.19285,3.205725 -4.93128,2.362595 -5.20633,2.762346 -4.57509,6.649319 0.23956,1.475158 0.36478,4.198643 0.29806,6.482521 l -0.11506,3.938589 3.96869,0.09024 c 2.67636,0.06085 4.86462,-0.07933 6.72,-0.43049 1.51322,-0.2864 4.13051,-0.642796 5.8162,-0.79199 1.6857,-0.149197 3.4654,-0.453747 3.95491,-0.676781 0.4895,-0.223033 1.84466,-1.419245 3.01145,-2.658246 5.10212,-5.417866 5.83961,-5.896083 9.92664,-6.436842 1.43256,-0.189542 1.49455,-0.162995 1.85431,0.794007 0.42708,1.136073 0.1472,1.277628 -0.6922,0.350102 -0.67515,-0.746035 -1.20564,-0.785174 -3.25296,-0.24 -1.14822,0.305754 -2.09175,0.954458 -4.00459,2.753242 -1.37635,1.294284 -2.50245,2.496054 -2.50245,2.670601 0,0.174547 -0.28708,0.720535 -0.63797,1.213303 -0.56114,0.788048 -0.57725,0.919238 -0.13383,1.089398 0.27728,0.1064 0.84041,0.193456 1.2514,0.193456 0.41098,0 2.21356,0.995811 4.00573,2.212918 1.79217,1.217104 4.08031,2.520256 5.08476,2.895895 1.04756,0.391763 2.83113,1.504035 4.18294,2.608563 1.29617,1.059069 2.93038,2.218266 3.63157,2.575987 0.7012,0.357725 2.00851,1.233469 2.90515,1.946103 0.89664,0.71263 3.0894,1.979433 4.8728,2.81511 1.7834,0.83568 3.84582,2.064445 4.58317,2.730592 1.99326,1.800794 3.2736,4.614832 2.09967,4.614832 -0.26103,0 -0.82996,-0.701242 -1.26427,-1.558317 -1.04335,-2.05895 -2.28335,-3.049561 -5.94112,-4.746214 -1.672,-0.775555 -3.832,-2.022813 -4.8,-2.77168 -0.968,-0.748871 -2.48,-1.769555 -3.36,-2.268189 -0.88,-0.498634 -2.21989,-1.40624 -2.97754,-2.016899 -0.75764,-0.610659 -1.43575,-1.05208 -1.5069,-0.980931 -0.40646,0.406464 1.10339,3.883772 2.19677,5.059305 0.67778,0.728714 1.16962,1.387642 1.09298,1.464285 -0.0767,0.07665 -0.81324,-0.385658 -1.63687,-1.027341 -1.5255,-1.188509 -2.0416,-2.290893 -2.62267,-5.601933 -0.1898,-1.081536 -0.3455,-1.219158 -2.10521,-1.86078 -1.04514,-0.381079 -2.79583,-1.323069 -3.89041,-2.093316 -4.73079,-3.329014 -6.0611,-3.69104 -9.35015,-2.544524 -0.88,0.306752 -3.04,0.661168 -4.8,0.78759 -2.3738,0.170509 -3.86268,0.480154 -5.76667,1.199312 -1.41166,0.5332 -3.71566,1.137549 -5.12,1.342992 -5.60874,0.820522 -6.28938,0.97297 -7.18206,1.608618 -1.25469,0.893414 -2.98343,3.120012 -2.73478,3.522345 0.11071,0.179123 0.90503,0.325677 1.76518,0.325677 1.22317,0 2.10795,-0.290976 4.06111,-1.335584 5.63116,-3.011702 6.80957,-3.533997 8.4561,-3.747901 2.41913,-0.314278 3.67779,0.03996 6.6152,1.861802 1.41098,0.87512 3.40703,1.887305 4.43567,2.249309 1.6504,0.580812 1.71979,0.636998 0.59025,0.477964 -0.704,-0.09912 -2.97889,-0.98359 -5.05532,-1.965484 -3.60069,-1.702692 -3.86731,-1.777885 -5.76405,-1.625632 -2.03845,0.163625 -4.98395,1.393027 -6.6216,2.763737 -0.67862,0.568003 -0.72669,0.716887 -0.31903,0.987962 1.01813,0.676995 5.40874,1.395398 8.70327,1.424054 2.2242,0.01936 3.3142,0.139107 3.11186,0.341917 -0.47959,0.48071 -7.41592,0.249859 -11.09292,-0.36919 l -3.27779,-0.551844 -1.68221,0.741908 c -0.92521,0.408048 -2.44572,0.857644 -3.37889,0.999107 -1.70259,0.258093 -2.62332,0.736112 -2.62332,1.361949 0,0.850624 -1.77681,4.675728 -2.70621,5.825926 -2.29777,2.843629 -2.19358,3.416531 0.73094,4.019334 0.9984,0.205789 2.96727,0.723674 4.37527,1.150855 4.23677,1.285421 7.04892,1.536009 12.32,1.097833 6.26197,-0.520547 8.92846,-0.02346 12.13843,2.262848 2.37589,1.692237 6.23226,2.891785 9.18139,2.855925 1.36462,-0.0166 2.74144,0.16516 3.42973,0.45274 0.73795,0.30834 2.19748,0.48046 4.07412,0.48046 2.72238,0 3.00472,-0.0625 4.09028,-0.90588 0.8969,-0.69678 1.35071,-0.851868 1.96605,-0.6719 0.44,0.12869 0.64469,0.24834 0.45486,0.26588 -0.18982,0.0175 -0.98182,0.45132 -1.76,0.96394 -0.78413,0.51655 -2.11543,1.03547 -2.98639,1.16406 l -1.57152,0.23202 0.93152,0.47032 c 0.51234,0.25868 1.82348,1.04252 2.91365,1.74188 1.09016,0.69935 2.67416,1.48352 3.52,1.7426 1.78721,0.54742 5.3564,0.59666 8.71562,0.12024 1.29674,-0.18391 2.42276,-0.26932 2.50228,-0.1898 0.23307,0.23307 -2.14488,0.76489 -4.48002,1.00193 -2.53286,0.25712 -2.69159,0.59484 -1.22876,2.61423 0.91474,1.26276 2.15103,2.00162 5.1765,3.0937 0.80726,0.29138 1.74326,0.75462 2.08,1.02941 0.59935,0.48908 0.59876,0.49486 -0.0277,0.27427 -6.52161,-2.29625 -7.76975,-3.07011 -8.80734,-5.46058 l -0.57021,-1.31368 -2.09397,-0.16809 c -2.04014,-0.16376 -3.07996,-0.57052 -7.56848,-2.96062 -2.40373,-1.27997 -4.6356,-2.06004 -6.4426,-2.25179 -2.36435,-0.2509 -2.74271,0.0694 -1.85645,1.5715 0.57037,0.9667 0.65999,1.46929 0.49023,2.74904 -0.18975,1.4304 -0.13109,1.63714 0.67727,2.38669 0.99871,0.92605 0.40648,1.16561 -0.79724,0.32249 -0.56277,-0.39418 -0.71146,-0.8116 -0.7124,-2 -0.003,-3.22629 -1.79133,-4.49431 -7.81795,-5.54204 -2.45455,-0.42672 -3.93525,-0.86976 -4.96,-1.48407 l -1.4609,-0.875748 -10.08,-0.25722 c -5.544,-0.14147 -11.0854,-0.28547 -12.31421,-0.32 -2.531,-0.0711 -3.10028,0.46841 -1.53012,1.450138 0.48638,0.3041 1.89233,1.42231 3.12433,2.4849 1.232,1.06259 3.032,2.49221 4,3.17692 0.968,0.6847 1.98861,1.5105 2.26802,1.83509 0.68474,0.79546 1.98969,1.87806 2.31968,1.92444 0.14723,0.0207 1.01123,0.6433 1.92,1.38357 2.54571,2.07371 4.07874,2.85311 7.47942,3.80257 1.72308,0.48108 3.42088,1.04242 3.77288,1.24741 0.56372,0.3283 0.48744,0.37297 -0.64,0.37481 -0.704,0.001 -1.856,-0.14307 -2.56,-0.32051 -0.704,-0.17743 -1.611,-0.39408 -2.01556,-0.48144 -2.72435,-0.5883 -5.62816,-1.94624 -6.96137,-3.2554 -0.51869,-0.50933 -1.59107,-1.41192 -2.38307,-2.00575 -3.84366,-2.8819 -7.00488,-5.55748 -6.85422,-5.80125 0.0921,-0.14902 -0.056,-0.18519 -0.32916,-0.0804 -0.27314,0.10482 -0.49662,0.30623 -0.49662,0.4476 0,0.41821 2.3524,3.22223 4.26933,5.08897 1.75719,1.71117 2.0409,2.3495 0.91321,2.05461 -0.53249,-0.13925 -0.55915,0.0342 -0.34687,2.25661 0.12648,1.3241 0.33018,2.56961 0.45266,2.76779 0.14652,0.23708 -0.035,0.32377 -0.53076,0.25343 -0.89486,-0.12697 -1.14396,-0.99934 -1.19971,-4.20145 -0.043,-2.46949 0.0906,-2.27917 -3.9773,-5.66546 -1.37427,-1.144 -2.79063,-2.54927 -3.14747,-3.12283 -1.23974,-1.99269 -5.23972,-3.64393 -8.91309,-3.67944 -1.72427,-0.0167 -6.96184,1.44898 -9.06549,2.53682 -1.75736,0.90877 -8.06841,5.66291 -10.08558,7.59752 -1.11708,1.07136 -3.52811,3.69771 -5.35784,5.83632 -3.91197,4.57239 -4.98317,5.50044 -10.59756,9.18135 l -4.22647,2.77097 -1.93995,3.43965 c -2.75729,4.88884 -4.27142,10.05411 -3.08113,10.51087 0.29218,0.11212 2.14737,-0.23265 4.12263,-0.76615 1.97527,-0.5335 4.81539,-1.20926 6.31139,-1.50169 1.7251,-0.33722 3.28245,-0.87691 4.25771,-1.47548 0.84574,-0.51908 1.70974,-0.84513 1.92,-0.72455 0.21026,0.12059 0.28511,0.11098 0.16633,-0.0213 -0.11878,-0.13233 1.0644,-1.31485 2.62929,-2.62781 2.65343,-2.22628 2.92071,-2.37306 3.96456,-2.17723 1.79256,0.33628 1.89518,0.78009 0.56428,2.44027 -0.6502,0.81105 -1.85202,2.02996 -2.67072,2.7087 -2.67051,2.21395 -2.75524,3.2695 -0.31681,3.9468 1.82133,0.50589 3.79571,0.386 5.16741,-0.31379 1.50062,-0.76555 2.03179,-1.63216 1.75971,-2.87094 -0.28607,-1.30246 0.31337,-3.2187 1.60924,-5.14436 1.06775,-1.58667 1.10942,-1.75353 0.91406,-3.66032 -0.12718,-1.24138 -0.0721,-2.2261 0.1454,-2.6006 0.31036,-0.53434 0.35158,-0.4938 0.36333,0.35727 0.0211,1.53264 0.38686,3.36 0.67242,3.36 0.14436,0 1.67357,-1.26 3.39825,-2.8 3.55582,-3.17506 5.66798,-4.88 6.04559,-4.88 0.14187,0 0.0851,0.1728 -0.12605,0.384 -0.2112,0.2112 -0.384,0.4992 -0.384,0.64 0,0.51729 2.56302,0.23424 4.83295,-0.53373 2.62264,-0.88731 3.20355,-0.84791 1.35806,0.0921 -1.78524,0.90932 -4.5069,1.65761 -6.02901,1.65761 -1.7293,0 -4.15256,1.78632 -7.77393,5.73057 -2.74525,2.99002 -3.58807,4.42641 -3.58807,6.11504 0,0.91546 0.77387,2.87439 1.13551,2.87439 0.25286,0 7.0692,-4.61375 10.17575,-6.88763 2.02829,-1.48462 3.10979,-2.07237 3.81334,-2.07237 1.18658,0 1.17021,0.0184 -1.39841,1.57154 -1.12541,0.68049 -2.04619,1.43083 -2.04619,1.66743 0,0.24931 0.50603,0.51243 1.20353,0.6258 2.02639,0.32938 1.74113,0.61523 -0.61396,0.61523 h -2.2371 l -2.85624,2.41952 c -1.57092,1.33074 -4.18823,3.42582 -5.81623,4.65575 -2.61551,1.97597 -2.96,2.35164 -2.96,3.2279 0,0.79468 0.36554,1.33312 1.84,2.71033 2.56729,2.39796 4.91243,3.46229 9.68,4.39322 8.94782,1.74719 13.09396,1.74392 21.76,-0.0171 2.2,-0.44707 5.296,-0.88972 6.88,-0.98368 1.96332,-0.11644 3.28363,-0.37414 4.1481,-0.8096 1.56472,-0.78821 4.1492,-3.38912 8.18837,-8.24043 1.69993,-2.04173 4.11773,-4.63168 5.37289,-5.75545 3.19456,-2.86016 7.79473,-6.10554 8.36089,-5.89853 0.25863,0.0946 0.36487,0.0666 0.23607,-0.0622 -0.24936,-0.24936 3.04458,-2.1207 4.70258,-2.67162 1.04798,-0.34822 3.19879,-2.15112 3.44407,-2.88695 0.0894,-0.26811 0.36066,-0.35363 0.70394,-0.2219 0.38322,0.14705 0.47462,0.36425 0.2912,0.692 -0.30605,0.54689 -4.22013,3.36882 -4.67263,3.36882 -0.41046,0 -5.7049,3.02461 -8.05548,4.60194 -2.98395,2.00235 -8.12225,7.32987 -9.913,10.27806 -0.85523,1.408 -2.06389,3.1 -2.68592,3.76 -0.6416,0.68076 -0.94098,1.2 -0.6919,1.2 0.24148,0 3.53428,-1.23821 7.31732,-2.75159 l 6.87826,-2.75159 3.06762,0.0346 c 3.18326,0.0359 7.93105,0.87877 5.36926,0.95317 -0.6701,0.0195 -2.1821,-0.11851 -3.36,-0.30661 -1.9201,-0.30661 -2.46719,-0.25816 -5.28877,0.46845 -2.11954,0.54583 -3.79131,1.21703 -5.12,2.05566 -1.08508,0.68486 -2.33287,1.35323 -2.77287,1.48526 -0.44,0.13203 -2.53304,1.1525 -4.65119,2.2677 -4.72605,2.48824 -8.53807,3.98493 -10.1495,3.98493 -0.66842,0 -2.0397,0.30066 -3.0473,0.66814 -1.00761,0.36747 -2.81108,0.92174 -4.00773,1.23171 -2.6256,0.68012 -3.16992,1.10108 -2.28708,1.76877 0.99369,0.75153 2.08653,0.57262 4.1428,-0.6782 1.77815,-1.08166 2.12095,-1.17199 4.64,-1.2228 1.496,-0.0302 3.584,-0.15032 4.64,-0.267 l 1.92,-0.21214 -1.44,0.47551 c -2.50113,0.8259 -2.50114,0.82591 -1.12,1.466 1.07808,0.49965 2.18863,0.60252 7.04,0.65212 l 5.76,0.0589 -4.48,0.24062 c -4.34164,0.2332 -8.02765,-0.0652 -11.77576,-0.95327 -1.5309,-0.36274 -3.08132,0.0454 -4.03696,1.06261 -1.06496,1.13359 -0.75142,1.8322 1.25272,2.79126 3.23119,1.54626 9.79588,2.88872 15.36,3.14107 4.64458,0.21065 5.09736,0.28871 7.12,1.22745 2.25019,1.04434 3.12333,2.09628 0.96,1.15659 -2.76789,-1.20231 -4.14848,-1.43455 -9.2,-1.54765 -3.20892,-0.0718 -5.9438,-0.30829 -7.32703,-0.63346 -1.21387,-0.28536 -2.24097,-0.48 -2.28245,-0.43253 -0.14447,0.1653 4.4948,9.41016 5.23127,10.42457 0.40799,0.56195 0.65052,1.02173 0.53896,1.02173 -0.75393,0 -1.66833,-1.13657 -3.98476,-4.95292 -1.49056,-2.4557 -3.09032,-4.68681 -3.68679,-5.14176 -1.11109,-0.84747 -4.25793,-2.45074 -5.6092,-2.85782 -2.02294,-0.60941 -6.37003,-2.8391 -6.18108,-3.17037 0.11203,-0.19642 0.0994,-0.26398 -0.0279,-0.15013 -0.1274,0.11385 -1.05049,-0.20833 -2.05131,-0.71595 -1.81348,-0.91981 -1.84032,-0.92297 -7.89966,-0.93191 -4.92673,-0.007 -6.54522,-0.12621 -8.53261,-0.62708 -3.35413,-0.84532 -7.33846,-2.87829 -10.89174,-5.5574 -4.43804,-3.34621 -7.75371,-5.23492 -11.05949,-6.29987 -1.6301,-0.52514 -3.26191,-0.95479 -3.62625,-0.95479 -1.05335,0 -5.31257,1.53273 -8.48582,3.05372 -5.44082,2.60788 -7.09453,5.14469 -7.39649,11.34628 -0.27111,5.56781 0.80105,9.9241 5.19799,21.12 2.88577,7.34801 3.37951,8.94941 4.7614,15.44303 1.75173,8.23148 4.033,23.48668 4.033,26.96921 v 1.42769 H 111.04573 99.210402 Z M 139.77381,99.498612 c 0.65299,-0.32703 1.58708,-0.69073 2.07577,-0.808236 1.43751,-0.345645 4.20961,-1.704393 4.76275,-2.334464 0.99333,-1.131494 1.55515,-2.663961 1.88052,-5.129488 0.50489,-3.825987 0.60111,-4.142009 1.78513,-5.863264 1.76216,-2.561744 1.8459,-2.990825 1.0774,-5.52095 -0.82266,-2.708416 -0.62787,-3.184141 0.29443,-0.719082 0.97883,2.61616 0.89082,4.603616 -0.28875,6.520663 -1.0184,1.6551 -1.36082,4.221584 -0.56,4.19727 0.39436,-0.01197 1.905,-1.89585 2.75692,-3.438086 0.86816,-1.571636 0.3482,-7.506196 -0.95368,-10.884826 -0.15578,-0.404282 -0.28324,-1.272435 -0.28324,-1.929232 0,-2.137216 -2.37692,-6.98624 -4.16,-8.486611 -0.50848,-0.427856 -0.87468,-0.829936 -0.81377,-0.893511 0.0609,-0.06357 -0.84707,-0.155702 -2.01774,-0.204726 -2.39281,-0.100205 -7.11465,-0.885037 -8.44442,-1.403574 -0.48177,-0.187863 -0.78352,-0.491104 -0.67056,-0.673869 0.12128,-0.196243 0.0494,-0.235882 -0.17566,-0.09681 -0.35397,0.218762 -0.9855,-0.348122 -3.58779,-3.220525 -0.78579,-0.86735 -5.38192,-3.636083 -6.03595,-3.636083 -0.16934,0 -0.1067,0.535331 0.1404,1.2 1.93522,5.205462 2.8007,7.314675 3.17706,7.742653 0.57872,0.658099 2.56843,4.656893 3.38122,6.795353 0.54476,1.433284 0.64691,2.459834 0.64705,6.502112 1e-4,3.021904 -0.1756,5.629892 -0.47428,7.04 -0.26095,1.231936 -0.47695,2.848967 -0.48,3.593405 -0.006,1.456535 0.82992,3.926477 1.32882,3.926477 0.37109,0 9.84817,-9.503744 10.74411,-10.774339 0.35123,-0.498112 0.87511,-1.697661 1.16415,-2.665661 0.28905,-0.968 0.74816,-2.12 1.02025,-2.56 0.47636,-0.770346 0.48852,-0.73681 0.32806,0.904698 -0.30103,3.079424 -1.39256,4.82063 -5.85884,9.346019 -2.25066,2.280445 -4.34881,4.686944 -4.66257,5.347773 -0.45184,0.951696 -0.54561,1.800307 -0.45097,4.08151 0.18656,4.496574 0.85163,5.298712 3.35418,4.045404 z"
       id="path22" />
  </g>
</svg>
